<?xml version="1.0" standalone="no"?>
<!DOCTYPE svg PUBLIC "-//W3C//DTD SVG 20010904//EN"
 "http://www.w3.org/TR/2001/REC-SVG-20010904/DTD/svg10.dtd">
<svg version="1.0" xmlns="http://www.w3.org/2000/svg"
 width="512.000000pt" height="512.000000pt" viewBox="0 0 512.000000 512.000000"
 preserveAspectRatio="xMidYMid meet">

<g transform="translate(0.000000,512.000000) scale(0.100000,-0.100000)"
fill="white" stroke="none">
<path d="M2505 4184 c-33 -17 -1310 -1286 -1356 -1348 -49 -65 -34 -158 31
-191 38 -20 99 -19 130 1 14 9 271 262 573 563 l547 546 0 -1365 c0 -1303 1
-1367 18 -1399 20 -38 73 -71 112 -71 39 0 92 33 112 71 17 32 18 96 18 1399
l0 1365 548 -546 c301 -301 558 -554 572 -563 31 -20 92 -21 130 -1 65 33 80
126 31 191 -51 69 -1335 1343 -1364 1353 -39 15 -67 14 -102 -5z"/>
</g>
</svg>
