<?xml version="1.0" standalone="no"?>
<!DOCTYPE svg PUBLIC "-//W3C//DTD SVG 20010904//EN"
 "http://www.w3.org/TR/2001/REC-SVG-20010904/DTD/svg10.dtd">
<svg version="1.0" xmlns="http://www.w3.org/2000/svg"
 width="512.000000pt" height="512.000000pt" viewBox="0 0 512.000000 512.000000"
 preserveAspectRatio="xMidYMid meet">

<g transform="translate(0.000000,512.000000) scale(0.100000,-0.100000)"
fill="#878787" stroke="none">
<path d="M2265 4784 c-1007 -136 -1799 -931 -1930 -1937 -19 -152 -19 -422 0
-574 109 -840 684 -1548 1486 -1831 231 -82 476 -122 739 -122 415 0 789 101
1136 307 601 357 1001 962 1089 1646 19 151 19 423 0 574 -129 1004 -931 1808
-1933 1937 -151 19 -445 20 -587 0z m557 -220 c367 -47 714 -196 1008 -431 88
-70 250 -233 316 -318 284 -365 434 -798 434 -1255 0 -1117 -903 -2020 -2020
-2020 -1118 0 -2020 902 -2020 2020 0 764 424 1455 1107 1803 198 100 428 172
643 201 145 19 383 19 532 0z"/>
<path d="M2925 3080 l-370 -370 -365 365 -365 365 -75 -75 -75 -75 365 -365
365 -365 -365 -365 -365 -365 75 -75 75 -75 365 365 365 365 370 -370 370
-370 75 75 75 75 -370 370 -370 370 370 370 370 370 -75 75 -75 75 -370 -370z"/>
</g>
</svg>
