<svg width="288" height="106" viewBox="0 0 288 106" fill="none" xmlns="http://www.w3.org/2000/svg">
<line y1="3.5" x2="288" y2="3.5" stroke="black" stroke-width="7"/>
<line x1="-0.000823975" y1="102" x2="287.999" y2="102" stroke="black" stroke-width="7"/>
<path d="M10.9925 79V24.4545H44.8171V31.5391H19.2223V48.1584H42.3935V55.2163H19.2223V79H10.9925ZM102.319 51.7273C102.319 57.5511 101.254 62.5582 99.1229 66.7486C96.9922 70.9212 94.0714 74.1349 90.3604 76.3899C86.6673 78.6271 82.468 79.7457 77.7628 79.7457C73.0398 79.7457 68.8228 78.6271 65.1119 76.3899C61.4187 74.1349 58.5067 70.9123 56.3761 66.7219C54.2454 62.5316 53.18 57.5334 53.18 51.7273C53.18 45.9034 54.2454 40.9052 56.3761 36.7326C58.5067 32.5423 61.4187 29.3285 65.1119 27.0913C68.8228 24.8363 73.0398 23.7088 77.7628 23.7088C82.468 23.7088 86.6673 24.8363 90.3604 27.0913C94.0714 29.3285 96.9922 32.5423 99.1229 36.7326C101.254 40.9052 102.319 45.9034 102.319 51.7273ZM94.169 51.7273C94.169 47.2884 93.4499 43.5508 92.0117 40.5146C90.5913 37.4606 88.6381 35.1523 86.1523 33.5898C83.6843 32.0096 80.8878 31.2195 77.7628 31.2195C74.62 31.2195 71.8146 32.0096 69.3466 33.5898C66.8786 35.1523 64.9254 37.4606 63.4872 40.5146C62.0668 43.5508 61.3565 47.2884 61.3565 51.7273C61.3565 56.1662 62.0668 59.9126 63.4872 62.9666C64.9254 66.0028 66.8786 68.3111 69.3466 69.8913C71.8146 71.4538 74.62 72.2351 77.7628 72.2351C80.8878 72.2351 83.6843 71.4538 86.1523 69.8913C88.6381 68.3111 90.5913 66.0028 92.0117 62.9666C93.4499 59.9126 94.169 56.1662 94.169 51.7273ZM159.96 51.7273C159.96 57.5511 158.895 62.5582 156.764 66.7486C154.634 70.9212 151.713 74.1349 148.002 76.3899C144.309 78.6271 140.11 79.7457 135.404 79.7457C130.681 79.7457 126.464 78.6271 122.753 76.3899C119.06 74.1349 116.148 70.9123 114.018 66.7219C111.887 62.5316 110.822 57.5334 110.822 51.7273C110.822 45.9034 111.887 40.9052 114.018 36.7326C116.148 32.5423 119.06 29.3285 122.753 27.0913C126.464 24.8363 130.681 23.7088 135.404 23.7088C140.11 23.7088 144.309 24.8363 148.002 27.0913C151.713 29.3285 154.634 32.5423 156.764 36.7326C158.895 40.9052 159.96 45.9034 159.96 51.7273ZM151.811 51.7273C151.811 47.2884 151.092 43.5508 149.653 40.5146C148.233 37.4606 146.28 35.1523 143.794 33.5898C141.326 32.0096 138.529 31.2195 135.404 31.2195C132.262 31.2195 129.456 32.0096 126.988 33.5898C124.52 35.1523 122.567 37.4606 121.129 40.5146C119.708 43.5508 118.998 47.2884 118.998 51.7273C118.998 56.1662 119.708 59.9126 121.129 62.9666C122.567 66.0028 124.52 68.3111 126.988 69.8913C129.456 71.4538 132.262 72.2351 135.404 72.2351C138.529 72.2351 141.326 71.4538 143.794 69.8913C146.28 68.3111 148.233 66.0028 149.653 62.9666C151.092 59.9126 151.811 56.1662 151.811 51.7273ZM187.879 79H170.221V24.4545H188.438C193.783 24.4545 198.373 25.5465 202.208 27.7305C206.043 29.8967 208.982 33.0128 211.024 37.0788C213.083 41.1271 214.113 45.9833 214.113 51.6474C214.113 57.3292 213.074 62.212 210.997 66.2958C208.937 70.3796 205.954 73.5224 202.048 75.7241C198.142 77.908 193.419 79 187.879 79ZM178.451 71.8089H187.426C191.581 71.8089 195.035 71.0277 197.787 69.4652C200.539 67.8849 202.599 65.6033 203.966 62.6204C205.333 59.6197 206.017 55.962 206.017 51.6474C206.017 47.3683 205.333 43.7372 203.966 40.7543C202.616 37.7713 200.601 35.5075 197.92 33.9627C195.239 32.418 191.91 31.6456 187.932 31.6456H178.451V71.8089ZM232.577 24.4545V79H224.347V24.4545H232.577ZM244.562 79V24.4545H278.759V31.5391H252.792V48.1584H276.975V55.2163H252.792V71.9155H279.079V79H244.562Z" fill="black"/>
</svg>
