<svg width="250" height="81" viewBox="0 0 250 81" fill="none" xmlns="http://www.w3.org/2000/svg">
<line y1="2.5" x2="250" y2="2.5" stroke="white" stroke-width="5"/>
<line y1="78.5" x2="250" y2="78.5" stroke="white" stroke-width="5"/>
<path d="M20.04 62C19.5707 62 19.208 61.872 18.952 61.616C18.696 61.3173 18.568 60.9547 18.568 60.528V18.736C18.568 18.2667 18.696 17.904 18.952 17.648C19.208 17.3493 19.5707 17.2 20.04 17.2H46.152C46.6213 17.2 46.984 17.3493 47.24 17.648C47.496 17.904 47.624 18.2667 47.624 18.736V21.296C47.624 21.7653 47.496 22.128 47.24 22.384C46.984 22.64 46.6213 22.768 46.152 22.768H24.776V37.68H44.872C45.3413 37.68 45.704 37.8293 45.96 38.128C46.216 38.384 46.344 38.7467 46.344 39.216V41.776C46.344 42.2027 46.216 42.5653 45.96 42.864C45.704 43.12 45.3413 43.248 44.872 43.248H24.776V60.528C24.776 60.9547 24.6267 61.3173 24.328 61.616C24.072 61.872 23.7093 62 23.24 62H20.04ZM71.6945 62.64C68.0678 62.64 64.9532 62.0213 62.3505 60.784C59.7478 59.504 57.7425 57.5627 56.3345 54.96C54.9265 52.3147 54.1372 49.008 53.9665 45.04C53.9238 43.1627 53.9025 41.3707 53.9025 39.664C53.9025 37.9147 53.9238 36.1013 53.9665 34.224C54.1372 30.2987 54.9478 27.0347 56.3985 24.432C57.8918 21.7867 59.9398 19.824 62.5425 18.544C65.1878 17.2213 68.2385 16.56 71.6945 16.56C75.1932 16.56 78.2438 17.2213 80.8465 18.544C83.4918 19.824 85.5612 21.7867 87.0545 24.432C88.5478 27.0347 89.3585 30.2987 89.4865 34.224C89.5718 36.1013 89.6145 37.9147 89.6145 39.664C89.6145 41.3707 89.5718 43.1627 89.4865 45.04C89.3585 49.008 88.5692 52.3147 87.1185 54.96C85.7105 57.5627 83.7052 59.504 81.1025 60.784C78.4998 62.0213 75.3638 62.64 71.6945 62.64ZM71.6945 57.2C74.9798 57.2 77.6465 56.2187 79.6945 54.256C81.7852 52.2933 82.9158 49.1147 83.0865 44.72C83.1718 42.8 83.2145 41.0933 83.2145 39.6C83.2145 38.064 83.1718 36.3573 83.0865 34.48C83.0012 31.536 82.4465 29.1467 81.4225 27.312C80.4412 25.4773 79.1185 24.1333 77.4545 23.28C75.7905 22.4267 73.8705 22 71.6945 22C69.6038 22 67.7265 22.4267 66.0625 23.28C64.3985 24.1333 63.0545 25.4773 62.0305 27.312C61.0492 29.1467 60.4945 31.536 60.3665 34.48C60.3238 36.3573 60.3025 38.064 60.3025 39.6C60.3025 41.0933 60.3238 42.8 60.3665 44.72C60.5372 49.1147 61.6678 52.2933 63.7585 54.256C65.8492 56.2187 68.4945 57.2 71.6945 57.2ZM115.007 62.64C111.38 62.64 108.266 62.0213 105.663 60.784C103.06 59.504 101.055 57.5627 99.647 54.96C98.239 52.3147 97.4497 49.008 97.279 45.04C97.2363 43.1627 97.215 41.3707 97.215 39.664C97.215 37.9147 97.2363 36.1013 97.279 34.224C97.4497 30.2987 98.2603 27.0347 99.711 24.432C101.204 21.7867 103.252 19.824 105.855 18.544C108.5 17.2213 111.551 16.56 115.007 16.56C118.506 16.56 121.556 17.2213 124.159 18.544C126.804 19.824 128.874 21.7867 130.367 24.432C131.86 27.0347 132.671 30.2987 132.799 34.224C132.884 36.1013 132.927 37.9147 132.927 39.664C132.927 41.3707 132.884 43.1627 132.799 45.04C132.671 49.008 131.882 52.3147 130.431 54.96C129.023 57.5627 127.018 59.504 124.415 60.784C121.812 62.0213 118.676 62.64 115.007 62.64ZM115.007 57.2C118.292 57.2 120.959 56.2187 123.007 54.256C125.098 52.2933 126.228 49.1147 126.399 44.72C126.484 42.8 126.527 41.0933 126.527 39.6C126.527 38.064 126.484 36.3573 126.399 34.48C126.314 31.536 125.759 29.1467 124.735 27.312C123.754 25.4773 122.431 24.1333 120.767 23.28C119.103 22.4267 117.183 22 115.007 22C112.916 22 111.039 22.4267 109.375 23.28C107.711 24.1333 106.367 25.4773 105.343 27.312C104.362 29.1467 103.807 31.536 103.679 34.48C103.636 36.3573 103.615 38.064 103.615 39.6C103.615 41.0933 103.636 42.8 103.679 44.72C103.85 49.1147 104.98 52.2933 107.071 54.256C109.162 56.2187 111.807 57.2 115.007 57.2ZM143.728 62C143.258 62 142.896 61.872 142.64 61.616C142.384 61.3173 142.256 60.9547 142.256 60.528V18.736C142.256 18.2667 142.384 17.904 142.64 17.648C142.896 17.3493 143.258 17.2 143.728 17.2H158.256C162.65 17.2 166.192 17.8613 168.88 19.184C171.568 20.5067 173.53 22.4693 174.768 25.072C176.005 27.632 176.645 30.7893 176.688 34.544C176.73 36.464 176.752 38.1493 176.752 39.6C176.752 41.0507 176.73 42.7147 176.688 44.592C176.602 48.5173 175.941 51.7813 174.704 54.384C173.509 56.944 171.589 58.864 168.944 60.144C166.341 61.3813 162.885 62 158.576 62H143.728ZM148.528 56.56H158.256C161.2 56.56 163.546 56.1547 165.296 55.344C167.045 54.5333 168.304 53.232 169.072 51.44C169.882 49.648 170.309 47.28 170.352 44.336C170.437 43.056 170.479 41.9467 170.479 41.008C170.479 40.0267 170.479 39.0667 170.479 38.128C170.479 37.1467 170.437 36.0373 170.352 34.8C170.266 30.6613 169.285 27.6107 167.408 25.648C165.53 23.6427 162.373 22.64 157.936 22.64H148.528V56.56ZM187.853 62C187.383 62 187.021 61.872 186.765 61.616C186.509 61.3173 186.381 60.9547 186.381 60.528V18.672C186.381 18.2453 186.509 17.904 186.765 17.648C187.021 17.3493 187.383 17.2 187.853 17.2H191.245C191.671 17.2 192.013 17.3493 192.269 17.648C192.567 17.904 192.717 18.2453 192.717 18.672V60.528C192.717 60.9547 192.567 61.3173 192.269 61.616C192.013 61.872 191.671 62 191.245 62H187.853ZM205.353 62C204.883 62 204.521 61.872 204.265 61.616C204.009 61.3173 203.881 60.9547 203.881 60.528V18.736C203.881 18.2667 204.009 17.904 204.265 17.648C204.521 17.3493 204.883 17.2 205.353 17.2H231.785C232.254 17.2 232.617 17.3493 232.873 17.648C233.129 17.904 233.257 18.2667 233.257 18.736V21.168C233.257 21.6373 233.129 22 232.873 22.256C232.617 22.512 232.254 22.64 231.785 22.64H210.025V36.656H230.377C230.846 36.656 231.209 36.8053 231.465 37.104C231.721 37.36 231.849 37.7227 231.849 38.192V40.56C231.849 40.9867 231.721 41.3493 231.465 41.648C231.209 41.904 230.846 42.032 230.377 42.032H210.025V56.56H232.297C232.766 56.56 233.129 56.688 233.385 56.944C233.641 57.2 233.769 57.5627 233.769 58.032V60.528C233.769 60.9547 233.641 61.3173 233.385 61.616C233.129 61.872 232.766 62 232.297 62H205.353Z" fill="white"/>
<path d="M18.952 61.616L18.1927 62.2668L18.2177 62.296L18.2449 62.3231L18.952 61.616ZM18.952 17.648L19.6591 18.3551L19.6863 18.3279L19.7113 18.2988L18.952 17.648ZM47.24 17.648L46.4807 18.2988L46.5057 18.3279L46.5329 18.3551L47.24 17.648ZM24.776 22.768V21.768H23.776V22.768H24.776ZM24.776 37.68H23.776V38.68H24.776V37.68ZM45.96 38.128L45.2007 38.7788L45.2257 38.8079L45.2529 38.8351L45.96 38.128ZM45.96 42.864L46.6671 43.5711L46.6943 43.5439L46.7193 43.5148L45.96 42.864ZM24.776 43.248V42.248H23.776V43.248H24.776ZM24.328 61.616L23.6209 60.9089L23.6209 60.9089L24.328 61.616ZM20.04 61C19.7539 61 19.6766 60.9264 19.6591 60.9089L18.2449 62.3231C18.7394 62.8176 19.3875 63 20.04 63V61ZM19.7113 60.9652C19.6242 60.8637 19.568 60.7377 19.568 60.528H17.568C17.568 61.1716 17.7678 61.771 18.1927 62.2668L19.7113 60.9652ZM19.568 60.528V18.736H17.568V60.528H19.568ZM19.568 18.736C19.568 18.4499 19.6416 18.3726 19.6591 18.3551L18.2449 16.9409C17.7504 17.4354 17.568 18.0835 17.568 18.736H19.568ZM19.7113 18.2988C19.7403 18.2649 19.8006 18.2 20.04 18.2V16.2C19.3407 16.2 18.6757 16.4338 18.1927 16.9972L19.7113 18.2988ZM20.04 18.2H46.152V16.2H20.04V18.2ZM46.152 18.2C46.3914 18.2 46.4517 18.2649 46.4807 18.2988L47.9993 16.9972C47.5163 16.4338 46.8513 16.2 46.152 16.2V18.2ZM46.5329 18.3551C46.5504 18.3726 46.624 18.4499 46.624 18.736H48.624C48.624 18.0835 48.4416 17.4354 47.9471 16.9409L46.5329 18.3551ZM46.624 18.736V21.296H48.624V18.736H46.624ZM46.624 21.296C46.624 21.5821 46.5504 21.6594 46.5329 21.6769L47.9471 23.0911C48.4416 22.5966 48.624 21.9485 48.624 21.296H46.624ZM46.5329 21.6769C46.5154 21.6944 46.4381 21.768 46.152 21.768V23.768C46.8045 23.768 47.4526 23.5856 47.9471 23.0911L46.5329 21.6769ZM46.152 21.768H24.776V23.768H46.152V21.768ZM23.776 22.768V37.68H25.776V22.768H23.776ZM24.776 38.68H44.872V36.68H24.776V38.68ZM44.872 38.68C45.1114 38.68 45.1717 38.7449 45.2007 38.7788L46.7193 37.4772C46.2363 36.9138 45.5713 36.68 44.872 36.68V38.68ZM45.2529 38.8351C45.2704 38.8526 45.344 38.9299 45.344 39.216H47.344C47.344 38.5635 47.1616 37.9154 46.6671 37.4209L45.2529 38.8351ZM45.344 39.216V41.776H47.344V39.216H45.344ZM45.344 41.776C45.344 41.9857 45.2878 42.1117 45.2007 42.2132L46.7193 43.5148C47.1442 43.019 47.344 42.4196 47.344 41.776H45.344ZM45.2529 42.1569C45.2354 42.1744 45.1581 42.248 44.872 42.248V44.248C45.5245 44.248 46.1726 44.0656 46.6671 43.5711L45.2529 42.1569ZM44.872 42.248H24.776V44.248H44.872V42.248ZM23.776 43.248V60.528H25.776V43.248H23.776ZM23.776 60.528C23.776 60.6925 23.7299 60.7999 23.6209 60.9089L25.0351 62.3231C25.5234 61.8348 25.776 61.2169 25.776 60.528H23.776ZM23.6209 60.9089C23.6034 60.9264 23.5261 61 23.24 61V63C23.8925 63 24.5406 62.8176 25.0351 62.3231L23.6209 60.9089ZM23.24 61H20.04V63H23.24V61ZM62.3505 60.784L61.9091 61.6814L61.9211 61.6871L62.3505 60.784ZM56.3345 54.96L55.4517 55.4299L55.455 55.4358L56.3345 54.96ZM53.9665 45.04L52.9668 45.0627L52.967 45.0728L52.9674 45.083L53.9665 45.04ZM53.9665 34.224L52.9674 34.1806L52.967 34.1909L52.9668 34.2013L53.9665 34.224ZM56.3985 24.432L55.5277 23.9404L55.525 23.9451L56.3985 24.432ZM62.5425 18.544L62.9838 19.4414L62.9897 19.4384L62.5425 18.544ZM80.8465 18.544L80.3935 19.4355L80.4022 19.4399L80.4109 19.4442L80.8465 18.544ZM87.0545 24.432L86.1837 24.9236L86.1871 24.9297L87.0545 24.432ZM89.4865 34.224L88.487 34.2566L88.4875 34.2694L89.4865 34.224ZM89.4865 45.04L88.4874 44.9946L88.487 45.0078L89.4865 45.04ZM87.1185 54.96L86.2417 54.4792L86.239 54.4842L87.1185 54.96ZM81.1025 60.784L81.5319 61.6872L81.5438 61.6813L81.1025 60.784ZM79.6945 54.256L79.01 53.5269L79.0026 53.534L79.6945 54.256ZM83.0865 44.72L82.0875 44.6756L82.0873 44.6812L83.0865 44.72ZM83.0865 34.48L82.0869 34.509L82.0872 34.5172L82.0875 34.5254L83.0865 34.48ZM81.4225 27.312L80.5407 27.7836L80.5449 27.7915L80.5493 27.7994L81.4225 27.312ZM77.4545 23.28L77.9108 22.3902L77.9108 22.3902L77.4545 23.28ZM66.0625 23.28L65.6062 22.3902L65.6062 22.3902L66.0625 23.28ZM62.0305 27.312L61.1573 26.8246L61.1529 26.8324L61.1487 26.8403L62.0305 27.312ZM60.3665 34.48L59.3674 34.4366L59.367 34.4469L59.3668 34.4573L60.3665 34.48ZM60.3665 44.72L59.3667 44.7422L59.3669 44.7505L59.3673 44.7588L60.3665 44.72ZM63.7585 54.256L64.4429 53.5269L64.4429 53.5269L63.7585 54.256ZM71.6945 61.64C68.1791 61.64 65.2183 61.0401 62.7799 59.8809L61.9211 61.6871C64.688 63.0025 67.9566 63.64 71.6945 63.64V61.64ZM62.7918 59.8866C60.3794 58.7002 58.5254 56.9082 57.214 54.4842L55.455 55.4358C56.9596 58.2171 59.1162 60.3078 61.9092 61.6813L62.7918 59.8866ZM57.2172 54.4902C55.8984 52.0122 55.1318 48.8622 54.9656 44.997L52.9674 45.083C53.1425 49.1538 53.9546 52.6171 55.4518 55.4298L57.2172 54.4902ZM54.9662 45.0173C54.9237 43.1468 54.9025 41.3624 54.9025 39.664H52.9025C52.9025 41.3789 52.9239 43.1786 52.9668 45.0627L54.9662 45.0173ZM54.9025 39.664C54.9025 37.9228 54.9237 36.117 54.9662 34.2467L52.9668 34.2013C52.9239 36.0856 52.9025 37.9066 52.9025 39.664H54.9025ZM54.9656 34.2674C55.1315 30.4501 55.9173 27.3493 57.272 24.9189L55.525 23.9451C53.9783 26.7201 53.1428 30.1472 52.9674 34.1806L54.9656 34.2674ZM57.2693 24.9236C58.6686 22.4449 60.5708 20.6281 62.9838 19.4413L62.1012 17.6466C59.3089 19.0199 57.1151 21.1284 55.5277 23.9404L57.2693 24.9236ZM62.9897 19.4384C65.4746 18.196 68.3676 17.56 71.6945 17.56V15.56C68.1094 15.56 64.9011 16.2467 62.0953 17.6496L62.9897 19.4384ZM71.6945 17.56C75.0667 17.56 77.9564 18.197 80.3935 19.4355L81.2996 17.6525C78.5313 16.2457 75.3197 15.56 71.6945 15.56V17.56ZM80.4109 19.4442C82.8665 20.6323 84.7869 22.4492 86.1837 24.9236L87.9253 23.9404C86.3355 21.1241 84.1172 19.0157 81.2821 17.6438L80.4109 19.4442ZM86.1871 24.9297C87.5778 27.3534 88.3628 30.446 88.487 34.2566L90.486 34.1914C90.3542 30.1514 89.5179 26.7159 87.9219 23.9343L86.1871 24.9297ZM88.4875 34.2694C88.5722 36.1327 88.6145 37.9309 88.6145 39.664H90.6145C90.6145 37.8985 90.5714 36.0699 90.4855 34.1786L88.4875 34.2694ZM88.6145 39.664C88.6145 41.3541 88.5722 43.1309 88.4875 44.9946L90.4855 45.0854C90.5714 43.1944 90.6145 41.3872 90.6145 39.664H88.6145ZM88.487 45.0078C88.3626 48.8664 87.5968 52.0082 86.2417 54.4792L87.9953 55.4408C89.5416 52.6212 90.3545 49.1496 90.486 45.0722L88.487 45.0078ZM86.239 54.4842C84.9276 56.9082 83.0736 58.7002 80.6612 59.8866L81.5438 61.6813C84.3368 60.3078 86.4934 58.2171 87.998 55.4358L86.239 54.4842ZM80.6731 59.8809C78.2361 61.0395 75.2546 61.64 71.6945 61.64V63.64C75.4731 63.64 78.7636 63.0032 81.5319 61.6871L80.6731 59.8809ZM71.6945 58.2C75.1938 58.2 78.1228 57.1473 80.3864 54.978L79.0026 53.534C77.1702 55.2901 74.7658 56.2 71.6945 56.2V58.2ZM80.3789 54.9851C82.742 52.7667 83.9102 49.2791 84.0857 44.7588L82.0873 44.6812C81.9215 48.9503 80.8283 51.82 79.0101 53.5269L80.3789 54.9851ZM84.0855 44.7644C84.1713 42.8336 84.2145 41.1116 84.2145 39.6H82.2145C82.2145 41.075 82.1723 42.7664 82.0875 44.6756L84.0855 44.7644ZM84.2145 39.6C84.2145 38.046 84.1713 36.3239 84.0855 34.4346L82.0875 34.5254C82.1723 36.3908 82.2145 38.082 82.2145 39.6H84.2145ZM84.0861 34.451C83.9979 31.4071 83.4231 28.8446 82.2957 26.8246L80.5493 27.7994C81.4699 29.4487 82.0045 31.6649 82.0869 34.509L84.0861 34.451ZM82.3043 26.8403C81.2382 24.8473 79.776 23.3467 77.9108 22.3902L76.9982 24.1698C78.461 24.92 79.6441 26.1074 80.5407 27.7836L82.3043 26.8403ZM77.9108 22.3902C76.0842 21.4534 74.0032 21 71.6945 21V23C73.7378 23 75.4968 23.3999 76.9982 24.1698L77.9108 22.3902ZM71.6945 21C69.4641 21 67.4273 21.4563 65.6062 22.3902L66.5188 24.1698C68.0257 23.3971 69.7436 23 71.6945 23V21ZM65.6062 22.3902C63.7454 23.3445 62.2652 24.8397 61.1573 26.8246L62.9037 27.7994C63.8438 26.115 65.0516 24.9222 66.5188 24.1698L65.6062 22.3902ZM61.1487 26.8403C60.0736 28.8504 59.4994 31.401 59.3674 34.4366L61.3656 34.5234C61.4896 31.671 62.0247 29.443 62.9123 27.7836L61.1487 26.8403ZM59.3668 34.4573C59.324 36.3406 59.3025 38.055 59.3025 39.6H61.3025C61.3025 38.073 61.3237 36.3741 61.3662 34.5027L59.3668 34.4573ZM59.3025 39.6C59.3025 41.1025 59.324 42.8168 59.3667 44.7422L61.3663 44.6978C61.3237 42.7832 61.3025 41.0842 61.3025 39.6H59.3025ZM59.3673 44.7588C59.5428 49.2791 60.711 52.7667 63.0741 54.9851L64.4429 53.5269C62.6247 51.82 61.5315 48.9503 61.3657 44.6812L59.3673 44.7588ZM63.0741 54.9851C65.3722 57.1425 68.2722 58.2 71.6945 58.2V56.2C68.7169 56.2 66.3262 55.2948 64.4429 53.5269L63.0741 54.9851ZM105.663 60.784L105.222 61.6814L105.234 61.6871L105.663 60.784ZM99.647 54.96L98.7642 55.4299L98.7675 55.4358L99.647 54.96ZM97.279 45.04L96.2793 45.0627L96.2795 45.0728L96.2799 45.083L97.279 45.04ZM97.279 34.224L96.2799 34.1806L96.2795 34.1909L96.2793 34.2013L97.279 34.224ZM99.711 24.432L98.8402 23.9404L98.8375 23.9451L99.711 24.432ZM105.855 18.544L106.296 19.4414L106.302 19.4384L105.855 18.544ZM124.159 18.544L123.706 19.4355L123.715 19.4399L123.723 19.4442L124.159 18.544ZM130.367 24.432L129.496 24.9236L129.5 24.9297L130.367 24.432ZM132.799 34.224L131.799 34.2566L131.8 34.2694L132.799 34.224ZM132.799 45.04L131.8 44.9946L131.8 45.0078L132.799 45.04ZM130.431 54.96L129.554 54.4792L129.551 54.4842L130.431 54.96ZM124.415 60.784L124.844 61.6872L124.856 61.6813L124.415 60.784ZM123.007 54.256L122.323 53.5269L122.315 53.534L123.007 54.256ZM126.399 44.72L125.4 44.6756L125.4 44.6812L126.399 44.72ZM126.399 34.48L125.399 34.509L125.4 34.5172L125.4 34.5254L126.399 34.48ZM124.735 27.312L123.853 27.7836L123.857 27.7915L123.862 27.7994L124.735 27.312ZM120.767 23.28L121.223 22.3902L121.223 22.3902L120.767 23.28ZM109.375 23.28L108.919 22.3902L108.919 22.3902L109.375 23.28ZM105.343 27.312L104.47 26.8246L104.465 26.8324L104.461 26.8403L105.343 27.312ZM103.679 34.48L102.68 34.4366L102.679 34.4469L102.679 34.4573L103.679 34.48ZM103.679 44.72L102.679 44.7422L102.679 44.7505L102.68 44.7588L103.679 44.72ZM107.071 54.256L107.755 53.5269L107.755 53.5269L107.071 54.256ZM115.007 61.64C111.492 61.64 108.531 61.0401 106.092 59.8809L105.234 61.6871C108 63.0025 111.269 63.64 115.007 63.64V61.64ZM106.104 59.8866C103.692 58.7002 101.838 56.9082 100.527 54.4842L98.7675 55.4358C100.272 58.2171 102.429 60.3078 105.222 61.6813L106.104 59.8866ZM100.53 54.4902C99.2109 52.0122 98.4443 48.8622 98.2781 44.997L96.2799 45.083C96.455 49.1538 97.2671 52.6171 98.7643 55.4298L100.53 54.4902ZM98.2787 45.0173C98.2362 43.1468 98.215 41.3624 98.215 39.664H96.215C96.215 41.3789 96.2364 43.1786 96.2793 45.0627L98.2787 45.0173ZM98.215 39.664C98.215 37.9228 98.2362 36.117 98.2787 34.2467L96.2793 34.2013C96.2364 36.0856 96.215 37.9066 96.215 39.664H98.215ZM98.2781 34.2674C98.444 30.4501 99.2298 27.3493 100.584 24.9189L98.8375 23.9451C97.2908 26.7201 96.4553 30.1472 96.2799 34.1806L98.2781 34.2674ZM100.582 24.9236C101.981 22.4449 103.883 20.6281 106.296 19.4413L105.414 17.6466C102.621 19.0199 100.428 21.1284 98.8402 23.9404L100.582 24.9236ZM106.302 19.4384C108.787 18.196 111.68 17.56 115.007 17.56V15.56C111.422 15.56 108.214 16.2467 105.408 17.6496L106.302 19.4384ZM115.007 17.56C118.379 17.56 121.269 18.197 123.706 19.4355L124.612 17.6525C121.844 16.2457 118.632 15.56 115.007 15.56V17.56ZM123.723 19.4442C126.179 20.6323 128.099 22.4492 129.496 24.9236L131.238 23.9404C129.648 21.1241 127.43 19.0157 124.595 17.6438L123.723 19.4442ZM129.5 24.9297C130.89 27.3534 131.675 30.446 131.8 34.2566L133.798 34.1914C133.667 30.1514 132.83 26.7159 131.234 23.9343L129.5 24.9297ZM131.8 34.2694C131.885 36.1327 131.927 37.9309 131.927 39.664H133.927C133.927 37.8985 133.884 36.0699 133.798 34.1786L131.8 34.2694ZM131.927 39.664C131.927 41.3541 131.885 43.1309 131.8 44.9946L133.798 45.0854C133.884 43.1944 133.927 41.3872 133.927 39.664H131.927ZM131.8 45.0078C131.675 48.8664 130.909 52.0082 129.554 54.4792L131.308 55.4408C132.854 52.6212 133.667 49.1496 133.798 45.0722L131.8 45.0078ZM129.551 54.4842C128.24 56.9082 126.386 58.7002 123.974 59.8866L124.856 61.6813C127.649 60.3078 129.806 58.2171 131.311 55.4358L129.551 54.4842ZM123.986 59.8809C121.549 61.0395 118.567 61.64 115.007 61.64V63.64C118.786 63.64 122.076 63.0032 124.844 61.6871L123.986 59.8809ZM115.007 58.2C118.506 58.2 121.435 57.1473 123.699 54.978L122.315 53.534C120.483 55.2901 118.078 56.2 115.007 56.2V58.2ZM123.691 54.9851C126.055 52.7667 127.223 49.2791 127.398 44.7588L125.4 44.6812C125.234 48.9503 124.141 51.82 122.323 53.5269L123.691 54.9851ZM127.398 44.7644C127.484 42.8336 127.527 41.1116 127.527 39.6H125.527C125.527 41.075 125.485 42.7664 125.4 44.6756L127.398 44.7644ZM127.527 39.6C127.527 38.046 127.484 36.3239 127.398 34.4346L125.4 34.5254C125.485 36.3908 125.527 38.082 125.527 39.6H127.527ZM127.399 34.451C127.31 31.4071 126.736 28.8446 125.608 26.8246L123.862 27.7994C124.782 29.4487 125.317 31.6649 125.399 34.509L127.399 34.451ZM125.617 26.8403C124.551 24.8473 123.089 23.3467 121.223 22.3902L120.311 24.1698C121.773 24.92 122.957 26.1074 123.853 27.7836L125.617 26.8403ZM121.223 22.3902C119.397 21.4534 117.316 21 115.007 21V23C117.05 23 118.809 23.3999 120.311 24.1698L121.223 22.3902ZM115.007 21C112.777 21 110.74 21.4563 108.919 22.3902L109.831 24.1698C111.338 23.3971 113.056 23 115.007 23V21ZM108.919 22.3902C107.058 23.3445 105.578 24.8397 104.47 26.8246L106.216 27.7994C107.156 26.115 108.364 24.9222 109.831 24.1698L108.919 22.3902ZM104.461 26.8403C103.386 28.8504 102.812 31.401 102.68 34.4366L104.678 34.5234C104.802 31.671 105.337 29.443 106.225 27.7836L104.461 26.8403ZM102.679 34.4573C102.636 36.3406 102.615 38.055 102.615 39.6H104.615C104.615 38.073 104.636 36.3741 104.679 34.5027L102.679 34.4573ZM102.615 39.6C102.615 41.1025 102.636 42.8168 102.679 44.7422L104.679 44.6978C104.636 42.7832 104.615 41.0842 104.615 39.6H102.615ZM102.68 44.7588C102.855 49.2791 104.023 52.7667 106.387 54.9851L107.755 53.5269C105.937 51.82 104.844 48.9503 104.678 44.6812L102.68 44.7588ZM106.387 54.9851C108.685 57.1425 111.585 58.2 115.007 58.2V56.2C112.029 56.2 109.639 55.2948 107.755 53.5269L106.387 54.9851ZM142.64 61.616L141.88 62.2668L141.905 62.296L141.932 62.3231L142.64 61.616ZM142.64 17.648L143.347 18.3551L143.374 18.3279L143.399 18.2988L142.64 17.648ZM168.88 19.184L168.438 20.0813L168.438 20.0813L168.88 19.184ZM174.768 25.072L173.864 25.5014L173.867 25.5072L174.768 25.072ZM176.688 34.544L175.688 34.5554L175.688 34.5662L176.688 34.544ZM176.688 44.592L175.688 44.5693L175.688 44.5703L176.688 44.592ZM174.704 54.384L173.8 53.9546L173.797 53.9611L174.704 54.384ZM168.944 60.144L169.373 61.0472L169.379 61.0442L168.944 60.144ZM148.528 56.56H147.528V57.56H148.528V56.56ZM169.072 51.44L168.16 51.0278L168.156 51.0369L168.152 51.0461L169.072 51.44ZM170.352 44.336L169.354 44.2695L169.352 44.2955L169.352 44.3215L170.352 44.336ZM170.352 34.8L169.352 34.8206L169.352 34.8447L169.354 34.8688L170.352 34.8ZM167.408 25.648L166.677 26.3315L166.685 26.3392L167.408 25.648ZM148.528 22.64V21.64H147.528V22.64H148.528ZM143.728 61C143.441 61 143.364 60.9264 143.347 60.9089L141.932 62.3231C142.427 62.8176 143.075 63 143.728 63V61ZM143.399 60.9652C143.312 60.8637 143.256 60.7377 143.256 60.528H141.256C141.256 61.1716 141.455 61.771 141.88 62.2668L143.399 60.9652ZM143.256 60.528V18.736H141.256V60.528H143.256ZM143.256 18.736C143.256 18.4499 143.329 18.3726 143.347 18.3551L141.932 16.9409C141.438 17.4354 141.256 18.0835 141.256 18.736H143.256ZM143.399 18.2988C143.428 18.2649 143.488 18.2 143.728 18.2V16.2C143.028 16.2 142.363 16.4338 141.88 16.9972L143.399 18.2988ZM143.728 18.2H158.256V16.2H143.728V18.2ZM158.256 18.2C162.563 18.2 165.936 18.8503 168.438 20.0813L169.321 18.2867C166.447 16.8724 162.737 16.2 158.256 16.2V18.2ZM168.438 20.0813C170.932 21.3087 172.728 23.1107 173.864 25.5014L175.671 24.6426C174.332 21.8279 172.203 19.7047 169.321 18.2867L168.438 20.0813ZM173.867 25.5072C175.024 27.8997 175.646 30.9026 175.688 34.5554L177.687 34.5326C177.644 30.6761 176.986 27.3643 175.668 24.6368L173.867 25.5072ZM175.688 34.5662C175.73 36.481 175.752 38.1587 175.752 39.6H177.752C177.752 38.14 177.73 36.447 177.687 34.5218L175.688 34.5662ZM175.752 39.6C175.752 41.0413 175.73 42.6974 175.688 44.5693L177.687 44.6147C177.73 42.7319 177.752 41.0601 177.752 39.6H175.752ZM175.688 44.5703C175.604 48.4026 174.959 51.5168 173.8 53.9546L175.607 54.8134C176.922 52.0458 177.6 48.632 177.687 44.6137L175.688 44.5703ZM173.797 53.9611C172.704 56.3037 170.955 58.0597 168.508 59.2438L169.379 61.0442C172.222 59.6683 174.314 57.5843 175.61 54.8069L173.797 53.9611ZM168.514 59.2409C166.095 60.3908 162.804 61 158.576 61V63C162.966 63 166.586 62.3719 169.373 61.0471L168.514 59.2409ZM158.576 61H143.728V63H158.576V61ZM148.528 57.56H158.256V55.56H148.528V57.56ZM158.256 57.56C161.275 57.56 163.784 57.1467 165.716 56.2513L164.875 54.4367C163.308 55.1627 161.124 55.56 158.256 55.56V57.56ZM165.716 56.2513C167.692 55.3356 169.127 53.8499 169.991 51.8339L168.152 51.0461C167.48 52.6141 166.398 53.731 164.875 54.4367L165.716 56.2513ZM169.983 51.8522C170.871 49.8889 171.308 47.3698 171.351 44.3505L169.352 44.3215C169.31 47.1902 168.894 49.4071 168.16 51.0278L169.983 51.8522ZM171.349 44.4025C171.436 43.1078 171.479 41.9752 171.479 41.008H169.479C169.479 41.9181 169.438 43.0042 169.354 44.2695L171.349 44.4025ZM171.479 41.008C171.479 41.0061 171.479 41.0042 171.479 41.0022C171.479 41.0003 171.479 40.9984 171.479 40.9965C171.479 40.9946 171.479 40.9927 171.479 40.9908C171.479 40.9888 171.479 40.9869 171.479 40.985C171.479 40.9831 171.479 40.9812 171.479 40.9793C171.479 40.9773 171.479 40.9754 171.479 40.9735C171.479 40.9716 171.479 40.9697 171.479 40.9678C171.479 40.9658 171.479 40.9639 171.479 40.962C171.479 40.9601 171.479 40.9582 171.479 40.9563C171.479 40.9544 171.479 40.9524 171.479 40.9505C171.479 40.9486 171.479 40.9467 171.479 40.9448C171.479 40.9429 171.479 40.9409 171.479 40.939C171.479 40.9371 171.479 40.9352 171.479 40.9333C171.479 40.9314 171.479 40.9295 171.479 40.9275C171.479 40.9256 171.479 40.9237 171.479 40.9218C171.479 40.9199 171.479 40.918 171.479 40.9161C171.479 40.9141 171.479 40.9122 171.479 40.9103C171.479 40.9084 171.479 40.9065 171.479 40.9046C171.479 40.9027 171.479 40.9008 171.479 40.8988C171.479 40.8969 171.479 40.895 171.479 40.8931C171.479 40.8912 171.479 40.8893 171.479 40.8874C171.479 40.8854 171.479 40.8835 171.479 40.8816C171.479 40.8797 171.479 40.8778 171.479 40.8759C171.479 40.874 171.479 40.8721 171.479 40.8701C171.479 40.8682 171.479 40.8663 171.479 40.8644C171.479 40.8625 171.479 40.8606 171.479 40.8587C171.479 40.8568 171.479 40.8548 171.479 40.8529C171.479 40.851 171.479 40.8491 171.479 40.8472C171.479 40.8453 171.479 40.8434 171.479 40.8415C171.479 40.8395 171.479 40.8376 171.479 40.8357C171.479 40.8338 171.479 40.8319 171.479 40.83C171.479 40.8281 171.479 40.8262 171.479 40.8242C171.479 40.8223 171.479 40.8204 171.479 40.8185C171.479 40.8166 171.479 40.8147 171.479 40.8128C171.479 40.8109 171.479 40.809 171.479 40.807C171.479 40.8051 171.479 40.8032 171.479 40.8013C171.479 40.7994 171.479 40.7975 171.479 40.7956C171.479 40.7937 171.479 40.7918 171.479 40.7899C171.479 40.7879 171.479 40.786 171.479 40.7841C171.479 40.7822 171.479 40.7803 171.479 40.7784C171.479 40.7765 171.479 40.7746 171.479 40.7727C171.479 40.7707 171.479 40.7688 171.479 40.7669C171.479 40.765 171.479 40.7631 171.479 40.7612C171.479 40.7593 171.479 40.7574 171.479 40.7555C171.479 40.7536 171.479 40.7517 171.479 40.7497C171.479 40.7478 171.479 40.7459 171.479 40.744C171.479 40.7421 171.479 40.7402 171.479 40.7383C171.479 40.7364 171.479 40.7345 171.479 40.7326C171.479 40.7307 171.479 40.7287 171.479 40.7268C171.479 40.7249 171.479 40.723 171.479 40.7211C171.479 40.7192 171.479 40.7173 171.479 40.7154C171.479 40.7135 171.479 40.7116 171.479 40.7097C171.479 40.7078 171.479 40.7058 171.479 40.7039C171.479 40.702 171.479 40.7001 171.479 40.6982C171.479 40.6963 171.479 40.6944 171.479 40.6925C171.479 40.6906 171.479 40.6887 171.479 40.6868C171.479 40.6849 171.479 40.6829 171.479 40.681C171.479 40.6791 171.479 40.6772 171.479 40.6753C171.479 40.6734 171.479 40.6715 171.479 40.6696C171.479 40.6677 171.479 40.6658 171.479 40.6639C171.479 40.662 171.479 40.6601 171.479 40.6582C171.479 40.6563 171.479 40.6543 171.479 40.6524C171.479 40.6505 171.479 40.6486 171.479 40.6467C171.479 40.6448 171.479 40.6429 171.479 40.641C171.479 40.6391 171.479 40.6372 171.479 40.6353C171.479 40.6334 171.479 40.6315 171.479 40.6296C171.479 40.6277 171.479 40.6258 171.479 40.6238C171.479 40.6219 171.479 40.62 171.479 40.6181C171.479 40.6162 171.479 40.6143 171.479 40.6124C171.479 40.6105 171.479 40.6086 171.479 40.6067C171.479 40.6048 171.479 40.6029 171.479 40.601C171.479 40.5991 171.479 40.5972 171.479 40.5953C171.479 40.5934 171.479 40.5915 171.479 40.5896C171.479 40.5876 171.479 40.5857 171.479 40.5838C171.479 40.5819 171.479 40.58 171.479 40.5781C171.479 40.5762 171.479 40.5743 171.479 40.5724C171.479 40.5705 171.479 40.5686 171.479 40.5667C171.479 40.5648 171.479 40.5629 171.479 40.561C171.479 40.5591 171.479 40.5572 171.479 40.5553C171.479 40.5534 171.479 40.5515 171.479 40.5496C171.479 40.5477 171.479 40.5458 171.479 40.5439C171.479 40.5419 171.479 40.54 171.479 40.5381C171.479 40.5362 171.479 40.5343 171.479 40.5324C171.479 40.5305 171.479 40.5286 171.479 40.5267C171.479 40.5248 171.479 40.5229 171.479 40.521C171.479 40.5191 171.479 40.5172 171.479 40.5153C171.479 40.5134 171.479 40.5115 171.479 40.5096C171.479 40.5077 171.479 40.5058 171.479 40.5039C171.479 40.502 171.479 40.5001 171.479 40.4982C171.479 40.4963 171.479 40.4944 171.479 40.4925C171.479 40.4906 171.479 40.4887 171.479 40.4868C171.479 40.4849 171.479 40.483 171.479 40.4811C171.479 40.4792 171.479 40.4773 171.479 40.4754C171.479 40.4735 171.479 40.4716 171.479 40.4697C171.479 40.4678 171.479 40.4659 171.479 40.464C171.479 40.4621 171.479 40.4602 171.479 40.4582C171.479 40.4563 171.479 40.4544 171.479 40.4525C171.479 40.4506 171.479 40.4487 171.479 40.4468C171.479 40.4449 171.479 40.443 171.479 40.4411C171.479 40.4392 171.479 40.4373 171.479 40.4354C171.479 40.4335 171.479 40.4316 171.479 40.4297C171.479 40.4278 171.479 40.4259 171.479 40.424C171.479 40.4221 171.479 40.4202 171.479 40.4183C171.479 40.4164 171.479 40.4145 171.479 40.4126C171.479 40.4107 171.479 40.4088 171.479 40.4069C171.479 40.405 171.479 40.4031 171.479 40.4012C171.479 40.3993 171.479 40.3974 171.479 40.3955C171.479 40.3936 171.479 40.3917 171.479 40.3898C171.479 40.3879 171.479 40.386 171.479 40.3841C171.479 40.3823 171.479 40.3804 171.479 40.3785C171.479 40.3766 171.479 40.3747 171.479 40.3728C171.479 40.3709 171.479 40.369 171.479 40.3671C171.479 40.3652 171.479 40.3633 171.479 40.3614C171.479 40.3595 171.479 40.3576 171.479 40.3557C171.479 40.3538 171.479 40.3519 171.479 40.35C171.479 40.3481 171.479 40.3462 171.479 40.3443C171.479 40.3424 171.479 40.3405 171.479 40.3386C171.479 40.3367 171.479 40.3348 171.479 40.3329C171.479 40.331 171.479 40.3291 171.479 40.3272C171.479 40.3253 171.479 40.3234 171.479 40.3215C171.479 40.3196 171.479 40.3177 171.479 40.3158C171.479 40.3139 171.479 40.312 171.479 40.3101C171.479 40.3082 171.479 40.3063 171.479 40.3044C171.479 40.3025 171.479 40.3006 171.479 40.2988C171.479 40.2969 171.479 40.295 171.479 40.2931C171.479 40.2912 171.479 40.2893 171.479 40.2874C171.479 40.2855 171.479 40.2836 171.479 40.2817C171.479 40.2798 171.479 40.2779 171.479 40.276C171.479 40.2741 171.479 40.2722 171.479 40.2703C171.479 40.2684 171.479 40.2665 171.479 40.2646C171.479 40.2627 171.479 40.2608 171.479 40.2589C171.479 40.257 171.479 40.2551 171.479 40.2533C171.479 40.2514 171.479 40.2495 171.479 40.2476C171.479 40.2457 171.479 40.2438 171.479 40.2419C171.479 40.24 171.479 40.2381 171.479 40.2362C171.479 40.2343 171.479 40.2324 171.479 40.2305C171.479 40.2286 171.479 40.2267 171.479 40.2248C171.479 40.2229 171.479 40.221 171.479 40.2191C171.479 40.2173 171.479 40.2154 171.479 40.2135C171.479 40.2116 171.479 40.2097 171.479 40.2078C171.479 40.2059 171.479 40.204 171.479 40.2021C171.479 40.2002 171.479 40.1983 171.479 40.1964C171.479 40.1945 171.479 40.1926 171.479 40.1907C171.479 40.1888 171.479 40.187 171.479 40.1851C171.479 40.1832 171.479 40.1813 171.479 40.1794C171.479 40.1775 171.479 40.1756 171.479 40.1737C171.479 40.1718 171.479 40.1699 171.479 40.168C171.479 40.1661 171.479 40.1642 171.479 40.1623C171.479 40.1605 171.479 40.1586 171.479 40.1567C171.479 40.1548 171.479 40.1529 171.479 40.151C171.479 40.1491 171.479 40.1472 171.479 40.1453C171.479 40.1434 171.479 40.1415 171.479 40.1396C171.479 40.1377 171.479 40.1359 171.479 40.134C171.479 40.1321 171.479 40.1302 171.479 40.1283C171.479 40.1264 171.479 40.1245 171.479 40.1226C171.479 40.1207 171.479 40.1188 171.479 40.1169C171.479 40.115 171.479 40.1132 171.479 40.1113C171.479 40.1094 171.479 40.1075 171.479 40.1056C171.479 40.1037 171.479 40.1018 171.479 40.0999C171.479 40.098 171.479 40.0961 171.479 40.0942C171.479 40.0924 171.479 40.0905 171.479 40.0886C171.479 40.0867 171.479 40.0848 171.479 40.0829C171.479 40.081 171.479 40.0791 171.479 40.0772C171.479 40.0753 171.479 40.0735 171.479 40.0716C171.479 40.0697 171.479 40.0678 171.479 40.0659C171.479 40.064 171.479 40.0621 171.479 40.0602C171.479 40.0583 171.479 40.0564 171.479 40.0546C171.479 40.0527 171.479 40.0508 171.479 40.0489C171.479 40.047 171.479 40.0451 171.479 40.0432C171.479 40.0413 171.479 40.0394 171.479 40.0376C171.479 40.0357 171.479 40.0338 171.479 40.0319C171.479 40.03 171.479 40.0281 171.479 40.0262C171.479 40.0243 171.479 40.0224 171.479 40.0206C171.479 40.0187 171.479 40.0168 171.479 40.0149C171.479 40.013 171.479 40.0111 171.479 40.0092C171.479 40.0073 171.479 40.0054 171.479 40.0036C171.479 40.0017 171.479 39.9998 171.479 39.9979C171.479 39.996 171.479 39.9941 171.479 39.9922C171.479 39.9903 171.479 39.9885 171.479 39.9866C171.479 39.9847 171.479 39.9828 171.479 39.9809C171.479 39.979 171.479 39.9771 171.479 39.9752C171.479 39.9734 171.479 39.9715 171.479 39.9696C171.479 39.9677 171.479 39.9658 171.479 39.9639C171.479 39.962 171.479 39.9602 171.479 39.9583C171.479 39.9564 171.479 39.9545 171.479 39.9526C171.479 39.9507 171.479 39.9488 171.479 39.9469C171.479 39.9451 171.479 39.9432 171.479 39.9413C171.479 39.9394 171.479 39.9375 171.479 39.9356C171.479 39.9337 171.479 39.9319 171.479 39.93C171.479 39.9281 171.479 39.9262 171.479 39.9243C171.479 39.9224 171.479 39.9205 171.479 39.9187C171.479 39.9168 171.479 39.9149 171.479 39.913C171.479 39.9111 171.479 39.9092 171.479 39.9073C171.479 39.9055 171.479 39.9036 171.479 39.9017C171.479 39.8998 171.479 39.8979 171.479 39.896C171.479 39.8941 171.479 39.8923 171.479 39.8904C171.479 39.8885 171.479 39.8866 171.479 39.8847C171.479 39.8828 171.479 39.881 171.479 39.8791C171.479 39.8772 171.479 39.8753 171.479 39.8734C171.479 39.8715 171.479 39.8696 171.479 39.8678C171.479 39.8659 171.479 39.864 171.479 39.8621C171.479 39.8602 171.479 39.8583 171.479 39.8565C171.479 39.8546 171.479 39.8527 171.479 39.8508C171.479 39.8489 171.479 39.847 171.479 39.8452C171.479 39.8433 171.479 39.8414 171.479 39.8395C171.479 39.8376 171.479 39.8357 171.479 39.8339C171.479 39.832 171.479 39.8301 171.479 39.8282C171.479 39.8263 171.479 39.8244 171.479 39.8226C171.479 39.8207 171.479 39.8188 171.479 39.8169C171.479 39.815 171.479 39.8131 171.479 39.8113C171.479 39.8094 171.479 39.8075 171.479 39.8056C171.479 39.8037 171.479 39.8019 171.479 39.8C171.479 39.7981 171.479 39.7962 171.479 39.7943C171.479 39.7924 171.479 39.7906 171.479 39.7887C171.479 39.7868 171.479 39.7849 171.479 39.783C171.479 39.7812 171.479 39.7793 171.479 39.7774C171.479 39.7755 171.479 39.7736 171.479 39.7717C171.479 39.7699 171.479 39.768 171.479 39.7661C171.479 39.7642 171.479 39.7623 171.479 39.7605C171.479 39.7586 171.479 39.7567 171.479 39.7548C171.479 39.7529 171.479 39.7511 171.479 39.7492C171.479 39.7473 171.479 39.7454 171.479 39.7435C171.479 39.7417 171.479 39.7398 171.479 39.7379C171.479 39.736 171.479 39.7341 171.479 39.7322C171.479 39.7304 171.479 39.7285 171.479 39.7266C171.479 39.7247 171.479 39.7228 171.479 39.721C171.479 39.7191 171.479 39.7172 171.479 39.7153C171.479 39.7134 171.479 39.7116 171.479 39.7097C171.479 39.7078 171.479 39.7059 171.479 39.7041C171.479 39.7022 171.479 39.7003 171.479 39.6984C171.479 39.6965 171.479 39.6947 171.479 39.6928C171.479 39.6909 171.479 39.689 171.479 39.6871C171.479 39.6853 171.479 39.6834 171.479 39.6815C171.479 39.6796 171.479 39.6777 171.479 39.6759C171.479 39.674 171.479 39.6721 171.479 39.6702C171.479 39.6684 171.479 39.6665 171.479 39.6646C171.479 39.6627 171.479 39.6608 171.479 39.659C171.479 39.6571 171.479 39.6552 171.479 39.6533C171.479 39.6515 171.479 39.6496 171.479 39.6477C171.479 39.6458 171.479 39.6439 171.479 39.6421C171.479 39.6402 171.479 39.6383 171.479 39.6364C171.479 39.6346 171.479 39.6327 171.479 39.6308C171.479 39.6289 171.479 39.627 171.479 39.6252C171.479 39.6233 171.479 39.6214 171.479 39.6195C171.479 39.6177 171.479 39.6158 171.479 39.6139C171.479 39.612 171.479 39.6102 171.479 39.6083C171.479 39.6064 171.479 39.6045 171.479 39.6026C171.479 39.6008 171.479 39.5989 171.479 39.597C171.479 39.5951 171.479 39.5933 171.479 39.5914C171.479 39.5895 171.479 39.5876 171.479 39.5858C171.479 39.5839 171.479 39.582 171.479 39.5801C171.479 39.5783 171.479 39.5764 171.479 39.5745C171.479 39.5726 171.479 39.5708 171.479 39.5689C171.479 39.567 171.479 39.5651 171.479 39.5633C171.479 39.5614 171.479 39.5595 171.479 39.5576C171.479 39.5557 171.479 39.5539 171.479 39.552C171.479 39.5501 171.479 39.5482 171.479 39.5464C171.479 39.5445 171.479 39.5426 171.479 39.5408C171.479 39.5389 171.479 39.537 171.479 39.5351C171.479 39.5333 171.479 39.5314 171.479 39.5295C171.479 39.5276 171.479 39.5258 171.479 39.5239C171.479 39.522 171.479 39.5201 171.479 39.5183C171.479 39.5164 171.479 39.5145 171.479 39.5126C171.479 39.5108 171.479 39.5089 171.479 39.507C171.479 39.5051 171.479 39.5033 171.479 39.5014C171.479 39.4995 171.479 39.4976 171.479 39.4958C171.479 39.4939 171.479 39.492 171.479 39.4902C171.479 39.4883 171.479 39.4864 171.479 39.4845C171.479 39.4827 171.479 39.4808 171.479 39.4789C171.479 39.477 171.479 39.4752 171.479 39.4733C171.479 39.4714 171.479 39.4696 171.479 39.4677C171.479 39.4658 171.479 39.4639 171.479 39.4621C171.479 39.4602 171.479 39.4583 171.479 39.4564C171.479 39.4546 171.479 39.4527 171.479 39.4508C171.479 39.449 171.479 39.4471 171.479 39.4452C171.479 39.4433 171.479 39.4415 171.479 39.4396C171.479 39.4377 171.479 39.4359 171.479 39.434C171.479 39.4321 171.479 39.4302 171.479 39.4284C171.479 39.4265 171.479 39.4246 171.479 39.4228C171.479 39.4209 171.479 39.419 171.479 39.4171C171.479 39.4153 171.479 39.4134 171.479 39.4115C171.479 39.4097 171.479 39.4078 171.479 39.4059C171.479 39.404 171.479 39.4022 171.479 39.4003C171.479 39.3984 171.479 39.3966 171.479 39.3947C171.479 39.3928 171.479 39.3909 171.479 39.3891C171.479 39.3872 171.479 39.3853 171.479 39.3835C171.479 39.3816 171.479 39.3797 171.479 39.3779C171.479 39.376 171.479 39.3741 171.479 39.3722C171.479 39.3704 171.479 39.3685 171.479 39.3666C171.479 39.3648 171.479 39.3629 171.479 39.361C171.479 39.3592 171.479 39.3573 171.479 39.3554C171.479 39.3536 171.479 39.3517 171.479 39.3498C171.479 39.3479 171.479 39.3461 171.479 39.3442C171.479 39.3423 171.479 39.3405 171.479 39.3386C171.479 39.3367 171.479 39.3349 171.479 39.333C171.479 39.3311 171.479 39.3293 171.479 39.3274C171.479 39.3255 171.479 39.3237 171.479 39.3218C171.479 39.3199 171.479 39.318 171.479 39.3162C171.479 39.3143 171.479 39.3124 171.479 39.3106C171.479 39.3087 171.479 39.3068 171.479 39.305C171.479 39.3031 171.479 39.3012 171.479 39.2994C171.479 39.2975 171.479 39.2956 171.479 39.2938C171.479 39.2919 171.479 39.29 171.479 39.2882C171.479 39.2863 171.479 39.2844 171.479 39.2826C171.479 39.2807 171.479 39.2788 171.479 39.277C171.479 39.2751 171.479 39.2732 171.479 39.2714C171.479 39.2695 171.479 39.2676 171.479 39.2658C171.479 39.2639 171.479 39.262 171.479 39.2602C171.479 39.2583 171.479 39.2564 171.479 39.2546C171.479 39.2527 171.479 39.2508 171.479 39.249C171.479 39.2471 171.479 39.2452 171.479 39.2434C171.479 39.2415 171.479 39.2396 171.479 39.2378C171.479 39.2359 171.479 39.234 171.479 39.2322C171.479 39.2303 171.479 39.2284 171.479 39.2266C171.479 39.2247 171.479 39.2228 171.479 39.221C171.479 39.2191 171.479 39.2172 171.479 39.2154C171.479 39.2135 171.479 39.2116 171.479 39.2098C171.479 39.2079 171.479 39.2061 171.479 39.2042C171.479 39.2023 171.479 39.2005 171.479 39.1986C171.479 39.1967 171.479 39.1949 171.479 39.193C171.479 39.1911 171.479 39.1893 171.479 39.1874C171.479 39.1855 171.479 39.1837 171.479 39.1818C171.479 39.1799 171.479 39.1781 171.479 39.1762C171.479 39.1744 171.479 39.1725 171.479 39.1706C171.479 39.1688 171.479 39.1669 171.479 39.165C171.479 39.1632 171.479 39.1613 171.479 39.1594C171.479 39.1576 171.479 39.1557 171.479 39.1539C171.479 39.152 171.479 39.1501 171.479 39.1483C171.479 39.1464 171.479 39.1445 171.479 39.1427C171.479 39.1408 171.479 39.1389 171.479 39.1371C171.479 39.1352 171.479 39.1334 171.479 39.1315C171.479 39.1296 171.479 39.1278 171.479 39.1259C171.479 39.124 171.479 39.1222 171.479 39.1203C171.479 39.1185 171.479 39.1166 171.479 39.1147C171.479 39.1129 171.479 39.111 171.479 39.1091C171.479 39.1073 171.479 39.1054 171.479 39.1036C171.479 39.1017 171.479 39.0998 171.479 39.098C171.479 39.0961 171.479 39.0943 171.479 39.0924C171.479 39.0905 171.479 39.0887 171.479 39.0868C171.479 39.0849 171.479 39.0831 171.479 39.0812C171.479 39.0794 171.479 39.0775 171.479 39.0756C171.479 39.0738 171.479 39.0719 171.479 39.0701C171.479 39.0682 171.479 39.0663 171.479 39.0645C171.479 39.0626 171.479 39.0608 171.479 39.0589C171.479 39.057 171.479 39.0552 171.479 39.0533C171.479 39.0514 171.479 39.0496 171.479 39.0477C171.479 39.0459 171.479 39.044 171.479 39.0421C171.479 39.0403 171.479 39.0384 171.479 39.0366C171.479 39.0347 171.479 39.0328 171.479 39.031C171.479 39.0291 171.479 39.0273 171.479 39.0254C171.479 39.0235 171.479 39.0217 171.479 39.0198C171.479 39.018 171.479 39.0161 171.479 39.0142C171.479 39.0124 171.479 39.0105 171.479 39.0087C171.479 39.0068 171.479 39.005 171.479 39.0031C171.479 39.0012 171.479 38.9994 171.479 38.9975C171.479 38.9957 171.479 38.9938 171.479 38.9919C171.479 38.9901 171.479 38.9882 171.479 38.9864C171.479 38.9845 171.479 38.9826 171.479 38.9808C171.479 38.9789 171.479 38.9771 171.479 38.9752C171.479 38.9734 171.479 38.9715 171.479 38.9696C171.479 38.9678 171.479 38.9659 171.479 38.9641C171.479 38.9622 171.479 38.9603 171.479 38.9585C171.479 38.9566 171.479 38.9548 171.479 38.9529C171.479 38.9511 171.479 38.9492 171.479 38.9473C171.479 38.9455 171.479 38.9436 171.479 38.9418C171.479 38.9399 171.479 38.9381 171.479 38.9362C171.479 38.9343 171.479 38.9325 171.479 38.9306C171.479 38.9288 171.479 38.9269 171.479 38.9251C171.479 38.9232 171.479 38.9213 171.479 38.9195C171.479 38.9176 171.479 38.9158 171.479 38.9139C171.479 38.9121 171.479 38.9102 171.479 38.9084C171.479 38.9065 171.479 38.9046 171.479 38.9028C171.479 38.9009 171.479 38.8991 171.479 38.8972C171.479 38.8954 171.479 38.8935 171.479 38.8916C171.479 38.8898 171.479 38.8879 171.479 38.8861C171.479 38.8842 171.479 38.8824 171.479 38.8805C171.479 38.8787 171.479 38.8768 171.479 38.8749C171.479 38.8731 171.479 38.8712 171.479 38.8694C171.479 38.8675 171.479 38.8657 171.479 38.8638C171.479 38.862 171.479 38.8601 171.479 38.8583C171.479 38.8564 171.479 38.8545 171.479 38.8527C171.479 38.8508 171.479 38.849 171.479 38.8471C171.479 38.8453 171.479 38.8434 171.479 38.8416C171.479 38.8397 171.479 38.8379 171.479 38.836C171.479 38.8341 171.479 38.8323 171.479 38.8304C171.479 38.8286 171.479 38.8267 171.479 38.8249C171.479 38.823 171.479 38.8212 171.479 38.8193C171.479 38.8175 171.479 38.8156 171.479 38.8138C171.479 38.8119 171.479 38.81 171.479 38.8082C171.479 38.8063 171.479 38.8045 171.479 38.8026C171.479 38.8008 171.479 38.7989 171.479 38.7971C171.479 38.7952 171.479 38.7934 171.479 38.7915C171.479 38.7897 171.479 38.7878 171.479 38.786C171.479 38.7841 171.479 38.7823 171.479 38.7804C171.479 38.7785 171.479 38.7767 171.479 38.7748C171.479 38.773 171.479 38.7711 171.479 38.7693C171.479 38.7674 171.479 38.7656 171.479 38.7637C171.479 38.7619 171.479 38.76 171.479 38.7582C171.479 38.7563 171.479 38.7545 171.479 38.7526C171.479 38.7508 171.479 38.7489 171.479 38.7471C171.479 38.7452 171.479 38.7434 171.479 38.7415C171.479 38.7397 171.479 38.7378 171.479 38.736C171.479 38.7341 171.479 38.7323 171.479 38.7304C171.479 38.7285 171.479 38.7267 171.479 38.7248C171.479 38.723 171.479 38.7211 171.479 38.7193C171.479 38.7174 171.479 38.7156 171.479 38.7137C171.479 38.7119 171.479 38.71 171.479 38.7082C171.479 38.7063 171.479 38.7045 171.479 38.7026C171.479 38.7008 171.479 38.6989 171.479 38.6971C171.479 38.6952 171.479 38.6934 171.479 38.6915C171.479 38.6897 171.479 38.6878 171.479 38.686C171.479 38.6841 171.479 38.6823 171.479 38.6804C171.479 38.6786 171.479 38.6767 171.479 38.6749C171.479 38.673 171.479 38.6712 171.479 38.6693C171.479 38.6675 171.479 38.6656 171.479 38.6638C171.479 38.6619 171.479 38.6601 171.479 38.6582C171.479 38.6564 171.479 38.6546 171.479 38.6527C171.479 38.6509 171.479 38.649 171.479 38.6472C171.479 38.6453 171.479 38.6435 171.479 38.6416C171.479 38.6398 171.479 38.6379 171.479 38.6361C171.479 38.6342 171.479 38.6324 171.479 38.6305C171.479 38.6287 171.479 38.6268 171.479 38.625C171.479 38.6231 171.479 38.6213 171.479 38.6194C171.479 38.6176 171.479 38.6157 171.479 38.6139C171.479 38.612 171.479 38.6102 171.479 38.6083C171.479 38.6065 171.479 38.6047 171.479 38.6028C171.479 38.601 171.479 38.5991 171.479 38.5973C171.479 38.5954 171.479 38.5936 171.479 38.5917C171.479 38.5899 171.479 38.588 171.479 38.5862C171.479 38.5843 171.479 38.5825 171.479 38.5806C171.479 38.5788 171.479 38.5769 171.479 38.5751C171.479 38.5733 171.479 38.5714 171.479 38.5696C171.479 38.5677 171.479 38.5659 171.479 38.564C171.479 38.5622 171.479 38.5603 171.479 38.5585C171.479 38.5566 171.479 38.5548 171.479 38.5529C171.479 38.5511 171.479 38.5493 171.479 38.5474C171.479 38.5456 171.479 38.5437 171.479 38.5419C171.479 38.54 171.479 38.5382 171.479 38.5363C171.479 38.5345 171.479 38.5326 171.479 38.5308C171.479 38.529 171.479 38.5271 171.479 38.5253C171.479 38.5234 171.479 38.5216 171.479 38.5197C171.479 38.5179 171.479 38.516 171.479 38.5142C171.479 38.5124 171.479 38.5105 171.479 38.5087C171.479 38.5068 171.479 38.505 171.479 38.5031C171.479 38.5013 171.479 38.4994 171.479 38.4976C171.479 38.4958 171.479 38.4939 171.479 38.4921C171.479 38.4902 171.479 38.4884 171.479 38.4865C171.479 38.4847 171.479 38.4828 171.479 38.481C171.479 38.4792 171.479 38.4773 171.479 38.4755C171.479 38.4736 171.479 38.4718 171.479 38.4699C171.479 38.4681 171.479 38.4663 171.479 38.4644C171.479 38.4626 171.479 38.4607 171.479 38.4589C171.479 38.457 171.479 38.4552 171.479 38.4533C171.479 38.4515 171.479 38.4497 171.479 38.4478C171.479 38.446 171.479 38.4441 171.479 38.4423C171.479 38.4404 171.479 38.4386 171.479 38.4368C171.479 38.4349 171.479 38.4331 171.479 38.4312C171.479 38.4294 171.479 38.4276 171.479 38.4257C171.479 38.4239 171.479 38.422 171.479 38.4202C171.479 38.4183 171.479 38.4165 171.479 38.4147C171.479 38.4128 171.479 38.411 171.479 38.4091C171.479 38.4073 171.479 38.4055 171.479 38.4036C171.479 38.4018 171.479 38.3999 171.479 38.3981C171.479 38.3962 171.479 38.3944 171.479 38.3926C171.479 38.3907 171.479 38.3889 171.479 38.387C171.479 38.3852 171.479 38.3834 171.479 38.3815C171.479 38.3797 171.479 38.3778 171.479 38.376C171.479 38.3742 171.479 38.3723 171.479 38.3705C171.479 38.3686 171.479 38.3668 171.479 38.3649C171.479 38.3631 171.479 38.3613 171.479 38.3594C171.479 38.3576 171.479 38.3557 171.479 38.3539C171.479 38.3521 171.479 38.3502 171.479 38.3484C171.479 38.3465 171.479 38.3447 171.479 38.3429C171.479 38.341 171.479 38.3392 171.479 38.3374C171.479 38.3355 171.479 38.3337 171.479 38.3318C171.479 38.33 171.479 38.3282 171.479 38.3263C171.479 38.3245 171.479 38.3226 171.479 38.3208C171.479 38.319 171.479 38.3171 171.479 38.3153C171.479 38.3134 171.479 38.3116 171.479 38.3098C171.479 38.3079 171.479 38.3061 171.479 38.3042C171.479 38.3024 171.479 38.3006 171.479 38.2987C171.479 38.2969 171.479 38.2951 171.479 38.2932C171.479 38.2914 171.479 38.2895 171.479 38.2877C171.479 38.2859 171.479 38.284 171.479 38.2822C171.479 38.2804 171.479 38.2785 171.479 38.2767C171.479 38.2748 171.479 38.273 171.479 38.2712C171.479 38.2693 171.479 38.2675 171.479 38.2657C171.479 38.2638 171.479 38.262 171.479 38.2601C171.479 38.2583 171.479 38.2565 171.479 38.2546C171.479 38.2528 171.479 38.251 171.479 38.2491C171.479 38.2473 171.479 38.2454 171.479 38.2436C171.479 38.2418 171.479 38.2399 171.479 38.2381C171.479 38.2363 171.479 38.2344 171.479 38.2326C171.479 38.2308 171.479 38.2289 171.479 38.2271C171.479 38.2252 171.479 38.2234 171.479 38.2216C171.479 38.2197 171.479 38.2179 171.479 38.2161C171.479 38.2142 171.479 38.2124 171.479 38.2106C171.479 38.2087 171.479 38.2069 171.479 38.205C171.479 38.2032 171.479 38.2014 171.479 38.1995C171.479 38.1977 171.479 38.1959 171.479 38.194C171.479 38.1922 171.479 38.1904 171.479 38.1885C171.479 38.1867 171.479 38.1849 171.479 38.183C171.479 38.1812 171.479 38.1794 171.479 38.1775C171.479 38.1757 171.479 38.1738 171.479 38.172C171.479 38.1702 171.479 38.1683 171.479 38.1665C171.479 38.1647 171.479 38.1628 171.479 38.161C171.479 38.1592 171.479 38.1573 171.479 38.1555C171.479 38.1537 171.479 38.1518 171.479 38.15C171.479 38.1482 171.479 38.1463 171.479 38.1445C171.479 38.1427 171.479 38.1408 171.479 38.139C171.479 38.1372 171.479 38.1353 171.479 38.1335C171.479 38.1317 171.479 38.1298 171.479 38.128H169.479C169.479 38.1298 169.479 38.1317 169.479 38.1335C169.479 38.1353 169.479 38.1372 169.479 38.139C169.479 38.1408 169.479 38.1427 169.479 38.1445C169.479 38.1463 169.479 38.1482 169.479 38.15C169.479 38.1518 169.479 38.1537 169.479 38.1555C169.479 38.1573 169.479 38.1592 169.479 38.161C169.479 38.1628 169.479 38.1647 169.479 38.1665C169.479 38.1683 169.479 38.1702 169.479 38.172C169.479 38.1738 169.479 38.1757 169.479 38.1775C169.479 38.1794 169.479 38.1812 169.479 38.183C169.479 38.1849 169.479 38.1867 169.479 38.1885C169.479 38.1904 169.479 38.1922 169.479 38.194C169.479 38.1959 169.479 38.1977 169.479 38.1995C169.479 38.2014 169.479 38.2032 169.479 38.205C169.479 38.2069 169.479 38.2087 169.479 38.2106C169.479 38.2124 169.479 38.2142 169.479 38.2161C169.479 38.2179 169.479 38.2197 169.479 38.2216C169.479 38.2234 169.479 38.2252 169.479 38.2271C169.479 38.2289 169.479 38.2308 169.479 38.2326C169.479 38.2344 169.479 38.2363 169.479 38.2381C169.479 38.2399 169.479 38.2418 169.479 38.2436C169.479 38.2454 169.479 38.2473 169.479 38.2491C169.479 38.251 169.479 38.2528 169.479 38.2546C169.479 38.2565 169.479 38.2583 169.479 38.2601C169.479 38.262 169.479 38.2638 169.479 38.2657C169.479 38.2675 169.479 38.2693 169.479 38.2712C169.479 38.273 169.479 38.2748 169.479 38.2767C169.479 38.2785 169.479 38.2804 169.479 38.2822C169.479 38.284 169.479 38.2859 169.479 38.2877C169.479 38.2895 169.479 38.2914 169.479 38.2932C169.479 38.2951 169.479 38.2969 169.479 38.2987C169.479 38.3006 169.479 38.3024 169.479 38.3042C169.479 38.3061 169.479 38.3079 169.479 38.3098C169.479 38.3116 169.479 38.3134 169.479 38.3153C169.479 38.3171 169.479 38.319 169.479 38.3208C169.479 38.3226 169.479 38.3245 169.479 38.3263C169.479 38.3282 169.479 38.33 169.479 38.3318C169.479 38.3337 169.479 38.3355 169.479 38.3374C169.479 38.3392 169.479 38.341 169.479 38.3429C169.479 38.3447 169.479 38.3465 169.479 38.3484C169.479 38.3502 169.479 38.3521 169.479 38.3539C169.479 38.3557 169.479 38.3576 169.479 38.3594C169.479 38.3613 169.479 38.3631 169.479 38.3649C169.479 38.3668 169.479 38.3686 169.479 38.3705C169.479 38.3723 169.479 38.3742 169.479 38.376C169.479 38.3778 169.479 38.3797 169.479 38.3815C169.479 38.3834 169.479 38.3852 169.479 38.387C169.479 38.3889 169.479 38.3907 169.479 38.3926C169.479 38.3944 169.479 38.3962 169.479 38.3981C169.479 38.3999 169.479 38.4018 169.479 38.4036C169.479 38.4055 169.479 38.4073 169.479 38.4091C169.479 38.411 169.479 38.4128 169.479 38.4147C169.479 38.4165 169.479 38.4183 169.479 38.4202C169.479 38.422 169.479 38.4239 169.479 38.4257C169.479 38.4276 169.479 38.4294 169.479 38.4312C169.479 38.4331 169.479 38.4349 169.479 38.4368C169.479 38.4386 169.479 38.4404 169.479 38.4423C169.479 38.4441 169.479 38.446 169.479 38.4478C169.479 38.4497 169.479 38.4515 169.479 38.4533C169.479 38.4552 169.479 38.457 169.479 38.4589C169.479 38.4607 169.479 38.4626 169.479 38.4644C169.479 38.4663 169.479 38.4681 169.479 38.4699C169.479 38.4718 169.479 38.4736 169.479 38.4755C169.479 38.4773 169.479 38.4792 169.479 38.481C169.479 38.4828 169.479 38.4847 169.479 38.4865C169.479 38.4884 169.479 38.4902 169.479 38.4921C169.479 38.4939 169.479 38.4958 169.479 38.4976C169.479 38.4994 169.479 38.5013 169.479 38.5031C169.479 38.505 169.479 38.5068 169.479 38.5087C169.479 38.5105 169.479 38.5124 169.479 38.5142C169.479 38.516 169.479 38.5179 169.479 38.5197C169.479 38.5216 169.479 38.5234 169.479 38.5253C169.479 38.5271 169.479 38.529 169.479 38.5308C169.479 38.5326 169.479 38.5345 169.479 38.5363C169.479 38.5382 169.479 38.54 169.479 38.5419C169.479 38.5437 169.479 38.5456 169.479 38.5474C169.479 38.5493 169.479 38.5511 169.479 38.5529C169.479 38.5548 169.479 38.5566 169.479 38.5585C169.479 38.5603 169.479 38.5622 169.479 38.564C169.479 38.5659 169.479 38.5677 169.479 38.5696C169.479 38.5714 169.479 38.5733 169.479 38.5751C169.479 38.5769 169.479 38.5788 169.479 38.5806C169.479 38.5825 169.479 38.5843 169.479 38.5862C169.479 38.588 169.479 38.5899 169.479 38.5917C169.479 38.5936 169.479 38.5954 169.479 38.5973C169.479 38.5991 169.479 38.601 169.479 38.6028C169.479 38.6047 169.479 38.6065 169.479 38.6083C169.479 38.6102 169.479 38.612 169.479 38.6139C169.479 38.6157 169.479 38.6176 169.479 38.6194C169.479 38.6213 169.479 38.6231 169.479 38.625C169.479 38.6268 169.479 38.6287 169.479 38.6305C169.479 38.6324 169.479 38.6342 169.479 38.6361C169.479 38.6379 169.479 38.6398 169.479 38.6416C169.479 38.6435 169.479 38.6453 169.479 38.6472C169.479 38.649 169.479 38.6509 169.479 38.6527C169.479 38.6546 169.479 38.6564 169.479 38.6582C169.479 38.6601 169.479 38.6619 169.479 38.6638C169.479 38.6656 169.479 38.6675 169.479 38.6693C169.479 38.6712 169.479 38.673 169.479 38.6749C169.479 38.6767 169.479 38.6786 169.479 38.6804C169.479 38.6823 169.479 38.6841 169.479 38.686C169.479 38.6878 169.479 38.6897 169.479 38.6915C169.479 38.6934 169.479 38.6952 169.479 38.6971C169.479 38.6989 169.479 38.7008 169.479 38.7026C169.479 38.7045 169.479 38.7063 169.479 38.7082C169.479 38.71 169.479 38.7119 169.479 38.7137C169.479 38.7156 169.479 38.7174 169.479 38.7193C169.479 38.7211 169.479 38.723 169.479 38.7248C169.479 38.7267 169.479 38.7285 169.479 38.7304C169.479 38.7323 169.479 38.7341 169.479 38.736C169.479 38.7378 169.479 38.7397 169.479 38.7415C169.479 38.7434 169.479 38.7452 169.479 38.7471C169.479 38.7489 169.479 38.7508 169.479 38.7526C169.479 38.7545 169.479 38.7563 169.479 38.7582C169.479 38.76 169.479 38.7619 169.479 38.7637C169.479 38.7656 169.479 38.7674 169.479 38.7693C169.479 38.7711 169.479 38.773 169.479 38.7748C169.479 38.7767 169.479 38.7785 169.479 38.7804C169.479 38.7823 169.479 38.7841 169.479 38.786C169.479 38.7878 169.479 38.7897 169.479 38.7915C169.479 38.7934 169.479 38.7952 169.479 38.7971C169.479 38.7989 169.479 38.8008 169.479 38.8026C169.479 38.8045 169.479 38.8063 169.479 38.8082C169.479 38.81 169.479 38.8119 169.479 38.8138C169.479 38.8156 169.479 38.8175 169.479 38.8193C169.479 38.8212 169.479 38.823 169.479 38.8249C169.479 38.8267 169.479 38.8286 169.479 38.8304C169.479 38.8323 169.479 38.8341 169.479 38.836C169.479 38.8379 169.479 38.8397 169.479 38.8416C169.479 38.8434 169.479 38.8453 169.479 38.8471C169.479 38.849 169.479 38.8508 169.479 38.8527C169.479 38.8545 169.479 38.8564 169.479 38.8583C169.479 38.8601 169.479 38.862 169.479 38.8638C169.479 38.8657 169.479 38.8675 169.479 38.8694C169.479 38.8712 169.479 38.8731 169.479 38.8749C169.479 38.8768 169.479 38.8787 169.479 38.8805C169.479 38.8824 169.479 38.8842 169.479 38.8861C169.479 38.8879 169.479 38.8898 169.479 38.8916C169.479 38.8935 169.479 38.8954 169.479 38.8972C169.479 38.8991 169.479 38.9009 169.479 38.9028C169.479 38.9046 169.479 38.9065 169.479 38.9084C169.479 38.9102 169.479 38.9121 169.479 38.9139C169.479 38.9158 169.479 38.9176 169.479 38.9195C169.479 38.9213 169.479 38.9232 169.479 38.9251C169.479 38.9269 169.479 38.9288 169.479 38.9306C169.479 38.9325 169.479 38.9343 169.479 38.9362C169.479 38.9381 169.479 38.9399 169.479 38.9418C169.479 38.9436 169.479 38.9455 169.479 38.9473C169.479 38.9492 169.479 38.9511 169.479 38.9529C169.479 38.9548 169.479 38.9566 169.479 38.9585C169.479 38.9603 169.479 38.9622 169.479 38.9641C169.479 38.9659 169.479 38.9678 169.479 38.9696C169.479 38.9715 169.479 38.9734 169.479 38.9752C169.479 38.9771 169.479 38.9789 169.479 38.9808C169.479 38.9826 169.479 38.9845 169.479 38.9864C169.479 38.9882 169.479 38.9901 169.479 38.9919C169.479 38.9938 169.479 38.9957 169.479 38.9975C169.479 38.9994 169.479 39.0012 169.479 39.0031C169.479 39.005 169.479 39.0068 169.479 39.0087C169.479 39.0105 169.479 39.0124 169.479 39.0142C169.479 39.0161 169.479 39.018 169.479 39.0198C169.479 39.0217 169.479 39.0235 169.479 39.0254C169.479 39.0273 169.479 39.0291 169.479 39.031C169.479 39.0328 169.479 39.0347 169.479 39.0366C169.479 39.0384 169.479 39.0403 169.479 39.0421C169.479 39.044 169.479 39.0459 169.479 39.0477C169.479 39.0496 169.479 39.0514 169.479 39.0533C169.479 39.0552 169.479 39.057 169.479 39.0589C169.479 39.0608 169.479 39.0626 169.479 39.0645C169.479 39.0663 169.479 39.0682 169.479 39.0701C169.479 39.0719 169.479 39.0738 169.479 39.0756C169.479 39.0775 169.479 39.0794 169.479 39.0812C169.479 39.0831 169.479 39.0849 169.479 39.0868C169.479 39.0887 169.479 39.0905 169.479 39.0924C169.479 39.0943 169.479 39.0961 169.479 39.098C169.479 39.0998 169.479 39.1017 169.479 39.1036C169.479 39.1054 169.479 39.1073 169.479 39.1091C169.479 39.111 169.479 39.1129 169.479 39.1147C169.479 39.1166 169.479 39.1185 169.479 39.1203C169.479 39.1222 169.479 39.124 169.479 39.1259C169.479 39.1278 169.479 39.1296 169.479 39.1315C169.479 39.1334 169.479 39.1352 169.479 39.1371C169.479 39.1389 169.479 39.1408 169.479 39.1427C169.479 39.1445 169.479 39.1464 169.479 39.1483C169.479 39.1501 169.479 39.152 169.479 39.1539C169.479 39.1557 169.479 39.1576 169.479 39.1594C169.479 39.1613 169.479 39.1632 169.479 39.165C169.479 39.1669 169.479 39.1688 169.479 39.1706C169.479 39.1725 169.479 39.1744 169.479 39.1762C169.479 39.1781 169.479 39.1799 169.479 39.1818C169.479 39.1837 169.479 39.1855 169.479 39.1874C169.479 39.1893 169.479 39.1911 169.479 39.193C169.479 39.1949 169.479 39.1967 169.479 39.1986C169.479 39.2005 169.479 39.2023 169.479 39.2042C169.479 39.2061 169.479 39.2079 169.479 39.2098C169.479 39.2116 169.479 39.2135 169.479 39.2154C169.479 39.2172 169.479 39.2191 169.479 39.221C169.479 39.2228 169.479 39.2247 169.479 39.2266C169.479 39.2284 169.479 39.2303 169.479 39.2322C169.479 39.234 169.479 39.2359 169.479 39.2378C169.479 39.2396 169.479 39.2415 169.479 39.2434C169.479 39.2452 169.479 39.2471 169.479 39.249C169.479 39.2508 169.479 39.2527 169.479 39.2546C169.479 39.2564 169.479 39.2583 169.479 39.2602C169.479 39.262 169.479 39.2639 169.479 39.2658C169.479 39.2676 169.479 39.2695 169.479 39.2714C169.479 39.2732 169.479 39.2751 169.479 39.277C169.479 39.2788 169.479 39.2807 169.479 39.2826C169.479 39.2844 169.479 39.2863 169.479 39.2882C169.479 39.29 169.479 39.2919 169.479 39.2938C169.479 39.2956 169.479 39.2975 169.479 39.2994C169.479 39.3012 169.479 39.3031 169.479 39.305C169.479 39.3068 169.479 39.3087 169.479 39.3106C169.479 39.3124 169.479 39.3143 169.479 39.3162C169.479 39.318 169.479 39.3199 169.479 39.3218C169.479 39.3237 169.479 39.3255 169.479 39.3274C169.479 39.3293 169.479 39.3311 169.479 39.333C169.479 39.3349 169.479 39.3367 169.479 39.3386C169.479 39.3405 169.479 39.3423 169.479 39.3442C169.479 39.3461 169.479 39.3479 169.479 39.3498C169.479 39.3517 169.479 39.3536 169.479 39.3554C169.479 39.3573 169.479 39.3592 169.479 39.361C169.479 39.3629 169.479 39.3648 169.479 39.3666C169.479 39.3685 169.479 39.3704 169.479 39.3722C169.479 39.3741 169.479 39.376 169.479 39.3779C169.479 39.3797 169.479 39.3816 169.479 39.3835C169.479 39.3853 169.479 39.3872 169.479 39.3891C169.479 39.3909 169.479 39.3928 169.479 39.3947C169.479 39.3966 169.479 39.3984 169.479 39.4003C169.479 39.4022 169.479 39.404 169.479 39.4059C169.479 39.4078 169.479 39.4097 169.479 39.4115C169.479 39.4134 169.479 39.4153 169.479 39.4171C169.479 39.419 169.479 39.4209 169.479 39.4228C169.479 39.4246 169.479 39.4265 169.479 39.4284C169.479 39.4302 169.479 39.4321 169.479 39.434C169.479 39.4359 169.479 39.4377 169.479 39.4396C169.479 39.4415 169.479 39.4433 169.479 39.4452C169.479 39.4471 169.479 39.449 169.479 39.4508C169.479 39.4527 169.479 39.4546 169.479 39.4564C169.479 39.4583 169.479 39.4602 169.479 39.4621C169.479 39.4639 169.479 39.4658 169.479 39.4677C169.479 39.4696 169.479 39.4714 169.479 39.4733C169.479 39.4752 169.479 39.477 169.479 39.4789C169.479 39.4808 169.479 39.4827 169.479 39.4845C169.479 39.4864 169.479 39.4883 169.479 39.4902C169.479 39.492 169.479 39.4939 169.479 39.4958C169.479 39.4976 169.479 39.4995 169.479 39.5014C169.479 39.5033 169.479 39.5051 169.479 39.507C169.479 39.5089 169.479 39.5108 169.479 39.5126C169.479 39.5145 169.479 39.5164 169.479 39.5183C169.479 39.5201 169.479 39.522 169.479 39.5239C169.479 39.5258 169.479 39.5276 169.479 39.5295C169.479 39.5314 169.479 39.5333 169.479 39.5351C169.479 39.537 169.479 39.5389 169.479 39.5408C169.479 39.5426 169.479 39.5445 169.479 39.5464C169.479 39.5482 169.479 39.5501 169.479 39.552C169.479 39.5539 169.479 39.5557 169.479 39.5576C169.479 39.5595 169.479 39.5614 169.479 39.5633C169.479 39.5651 169.479 39.567 169.479 39.5689C169.479 39.5708 169.479 39.5726 169.479 39.5745C169.479 39.5764 169.479 39.5783 169.479 39.5801C169.479 39.582 169.479 39.5839 169.479 39.5858C169.479 39.5876 169.479 39.5895 169.479 39.5914C169.479 39.5933 169.479 39.5951 169.479 39.597C169.479 39.5989 169.479 39.6008 169.479 39.6026C169.479 39.6045 169.479 39.6064 169.479 39.6083C169.479 39.6102 169.479 39.612 169.479 39.6139C169.479 39.6158 169.479 39.6177 169.479 39.6195C169.479 39.6214 169.479 39.6233 169.479 39.6252C169.479 39.627 169.479 39.6289 169.479 39.6308C169.479 39.6327 169.479 39.6346 169.479 39.6364C169.479 39.6383 169.479 39.6402 169.479 39.6421C169.479 39.6439 169.479 39.6458 169.479 39.6477C169.479 39.6496 169.479 39.6515 169.479 39.6533C169.479 39.6552 169.479 39.6571 169.479 39.659C169.479 39.6608 169.479 39.6627 169.479 39.6646C169.479 39.6665 169.479 39.6684 169.479 39.6702C169.479 39.6721 169.479 39.674 169.479 39.6759C169.479 39.6777 169.479 39.6796 169.479 39.6815C169.479 39.6834 169.479 39.6853 169.479 39.6871C169.479 39.689 169.479 39.6909 169.479 39.6928C169.479 39.6947 169.479 39.6965 169.479 39.6984C169.479 39.7003 169.479 39.7022 169.479 39.7041C169.479 39.7059 169.479 39.7078 169.479 39.7097C169.479 39.7116 169.479 39.7134 169.479 39.7153C169.479 39.7172 169.479 39.7191 169.479 39.721C169.479 39.7228 169.479 39.7247 169.479 39.7266C169.479 39.7285 169.479 39.7304 169.479 39.7322C169.479 39.7341 169.479 39.736 169.479 39.7379C169.479 39.7398 169.479 39.7417 169.479 39.7435C169.479 39.7454 169.479 39.7473 169.479 39.7492C169.479 39.7511 169.479 39.7529 169.479 39.7548C169.479 39.7567 169.479 39.7586 169.479 39.7605C169.479 39.7623 169.479 39.7642 169.479 39.7661C169.479 39.768 169.479 39.7699 169.479 39.7717C169.479 39.7736 169.479 39.7755 169.479 39.7774C169.479 39.7793 169.479 39.7812 169.479 39.783C169.479 39.7849 169.479 39.7868 169.479 39.7887C169.479 39.7906 169.479 39.7924 169.479 39.7943C169.479 39.7962 169.479 39.7981 169.479 39.8C169.479 39.8019 169.479 39.8037 169.479 39.8056C169.479 39.8075 169.479 39.8094 169.479 39.8113C169.479 39.8131 169.479 39.815 169.479 39.8169C169.479 39.8188 169.479 39.8207 169.479 39.8226C169.479 39.8244 169.479 39.8263 169.479 39.8282C169.479 39.8301 169.479 39.832 169.479 39.8339C169.479 39.8357 169.479 39.8376 169.479 39.8395C169.479 39.8414 169.479 39.8433 169.479 39.8452C169.479 39.847 169.479 39.8489 169.479 39.8508C169.479 39.8527 169.479 39.8546 169.479 39.8565C169.479 39.8583 169.479 39.8602 169.479 39.8621C169.479 39.864 169.479 39.8659 169.479 39.8678C169.479 39.8696 169.479 39.8715 169.479 39.8734C169.479 39.8753 169.479 39.8772 169.479 39.8791C169.479 39.881 169.479 39.8828 169.479 39.8847C169.479 39.8866 169.479 39.8885 169.479 39.8904C169.479 39.8923 169.479 39.8941 169.479 39.896C169.479 39.8979 169.479 39.8998 169.479 39.9017C169.479 39.9036 169.479 39.9055 169.479 39.9073C169.479 39.9092 169.479 39.9111 169.479 39.913C169.479 39.9149 169.479 39.9168 169.479 39.9187C169.479 39.9205 169.479 39.9224 169.479 39.9243C169.479 39.9262 169.479 39.9281 169.479 39.93C169.479 39.9319 169.479 39.9337 169.479 39.9356C169.479 39.9375 169.479 39.9394 169.479 39.9413C169.479 39.9432 169.479 39.9451 169.479 39.9469C169.479 39.9488 169.479 39.9507 169.479 39.9526C169.479 39.9545 169.479 39.9564 169.479 39.9583C169.479 39.9602 169.479 39.962 169.479 39.9639C169.479 39.9658 169.479 39.9677 169.479 39.9696C169.479 39.9715 169.479 39.9734 169.479 39.9752C169.479 39.9771 169.479 39.979 169.479 39.9809C169.479 39.9828 169.479 39.9847 169.479 39.9866C169.479 39.9885 169.479 39.9903 169.479 39.9922C169.479 39.9941 169.479 39.996 169.479 39.9979C169.479 39.9998 169.479 40.0017 169.479 40.0036C169.479 40.0054 169.479 40.0073 169.479 40.0092C169.479 40.0111 169.479 40.013 169.479 40.0149C169.479 40.0168 169.479 40.0187 169.479 40.0206C169.479 40.0224 169.479 40.0243 169.479 40.0262C169.479 40.0281 169.479 40.03 169.479 40.0319C169.479 40.0338 169.479 40.0357 169.479 40.0376C169.479 40.0394 169.479 40.0413 169.479 40.0432C169.479 40.0451 169.479 40.047 169.479 40.0489C169.479 40.0508 169.479 40.0527 169.479 40.0546C169.479 40.0564 169.479 40.0583 169.479 40.0602C169.479 40.0621 169.479 40.064 169.479 40.0659C169.479 40.0678 169.479 40.0697 169.479 40.0716C169.479 40.0735 169.479 40.0753 169.479 40.0772C169.479 40.0791 169.479 40.081 169.479 40.0829C169.479 40.0848 169.479 40.0867 169.479 40.0886C169.479 40.0905 169.479 40.0924 169.479 40.0942C169.479 40.0961 169.479 40.098 169.479 40.0999C169.479 40.1018 169.479 40.1037 169.479 40.1056C169.479 40.1075 169.479 40.1094 169.479 40.1113C169.479 40.1132 169.479 40.115 169.479 40.1169C169.479 40.1188 169.479 40.1207 169.479 40.1226C169.479 40.1245 169.479 40.1264 169.479 40.1283C169.479 40.1302 169.479 40.1321 169.479 40.134C169.479 40.1359 169.479 40.1377 169.479 40.1396C169.479 40.1415 169.479 40.1434 169.479 40.1453C169.479 40.1472 169.479 40.1491 169.479 40.151C169.479 40.1529 169.479 40.1548 169.479 40.1567C169.479 40.1586 169.479 40.1605 169.479 40.1623C169.479 40.1642 169.479 40.1661 169.479 40.168C169.479 40.1699 169.479 40.1718 169.479 40.1737C169.479 40.1756 169.479 40.1775 169.479 40.1794C169.479 40.1813 169.479 40.1832 169.479 40.1851C169.479 40.187 169.479 40.1888 169.479 40.1907C169.479 40.1926 169.479 40.1945 169.479 40.1964C169.479 40.1983 169.479 40.2002 169.479 40.2021C169.479 40.204 169.479 40.2059 169.479 40.2078C169.479 40.2097 169.479 40.2116 169.479 40.2135C169.479 40.2154 169.479 40.2173 169.479 40.2191C169.479 40.221 169.479 40.2229 169.479 40.2248C169.479 40.2267 169.479 40.2286 169.479 40.2305C169.479 40.2324 169.479 40.2343 169.479 40.2362C169.479 40.2381 169.479 40.24 169.479 40.2419C169.479 40.2438 169.479 40.2457 169.479 40.2476C169.479 40.2495 169.479 40.2514 169.479 40.2533C169.479 40.2551 169.479 40.257 169.479 40.2589C169.479 40.2608 169.479 40.2627 169.479 40.2646C169.479 40.2665 169.479 40.2684 169.479 40.2703C169.479 40.2722 169.479 40.2741 169.479 40.276C169.479 40.2779 169.479 40.2798 169.479 40.2817C169.479 40.2836 169.479 40.2855 169.479 40.2874C169.479 40.2893 169.479 40.2912 169.479 40.2931C169.479 40.295 169.479 40.2969 169.479 40.2988C169.479 40.3006 169.479 40.3025 169.479 40.3044C169.479 40.3063 169.479 40.3082 169.479 40.3101C169.479 40.312 169.479 40.3139 169.479 40.3158C169.479 40.3177 169.479 40.3196 169.479 40.3215C169.479 40.3234 169.479 40.3253 169.479 40.3272C169.479 40.3291 169.479 40.331 169.479 40.3329C169.479 40.3348 169.479 40.3367 169.479 40.3386C169.479 40.3405 169.479 40.3424 169.479 40.3443C169.479 40.3462 169.479 40.3481 169.479 40.35C169.479 40.3519 169.479 40.3538 169.479 40.3557C169.479 40.3576 169.479 40.3595 169.479 40.3614C169.479 40.3633 169.479 40.3652 169.479 40.3671C169.479 40.369 169.479 40.3709 169.479 40.3728C169.479 40.3747 169.479 40.3766 169.479 40.3785C169.479 40.3804 169.479 40.3823 169.479 40.3841C169.479 40.386 169.479 40.3879 169.479 40.3898C169.479 40.3917 169.479 40.3936 169.479 40.3955C169.479 40.3974 169.479 40.3993 169.479 40.4012C169.479 40.4031 169.479 40.405 169.479 40.4069C169.479 40.4088 169.479 40.4107 169.479 40.4126C169.479 40.4145 169.479 40.4164 169.479 40.4183C169.479 40.4202 169.479 40.4221 169.479 40.424C169.479 40.4259 169.479 40.4278 169.479 40.4297C169.479 40.4316 169.479 40.4335 169.479 40.4354C169.479 40.4373 169.479 40.4392 169.479 40.4411C169.479 40.443 169.479 40.4449 169.479 40.4468C169.479 40.4487 169.479 40.4506 169.479 40.4525C169.479 40.4544 169.479 40.4563 169.479 40.4582C169.479 40.4602 169.479 40.4621 169.479 40.464C169.479 40.4659 169.479 40.4678 169.479 40.4697C169.479 40.4716 169.479 40.4735 169.479 40.4754C169.479 40.4773 169.479 40.4792 169.479 40.4811C169.479 40.483 169.479 40.4849 169.479 40.4868C169.479 40.4887 169.479 40.4906 169.479 40.4925C169.479 40.4944 169.479 40.4963 169.479 40.4982C169.479 40.5001 169.479 40.502 169.479 40.5039C169.479 40.5058 169.479 40.5077 169.479 40.5096C169.479 40.5115 169.479 40.5134 169.479 40.5153C169.479 40.5172 169.479 40.5191 169.479 40.521C169.479 40.5229 169.479 40.5248 169.479 40.5267C169.479 40.5286 169.479 40.5305 169.479 40.5324C169.479 40.5343 169.479 40.5362 169.479 40.5381C169.479 40.54 169.479 40.5419 169.479 40.5439C169.479 40.5458 169.479 40.5477 169.479 40.5496C169.479 40.5515 169.479 40.5534 169.479 40.5553C169.479 40.5572 169.479 40.5591 169.479 40.561C169.479 40.5629 169.479 40.5648 169.479 40.5667C169.479 40.5686 169.479 40.5705 169.479 40.5724C169.479 40.5743 169.479 40.5762 169.479 40.5781C169.479 40.58 169.479 40.5819 169.479 40.5838C169.479 40.5857 169.479 40.5876 169.479 40.5896C169.479 40.5915 169.479 40.5934 169.479 40.5953C169.479 40.5972 169.479 40.5991 169.479 40.601C169.479 40.6029 169.479 40.6048 169.479 40.6067C169.479 40.6086 169.479 40.6105 169.479 40.6124C169.479 40.6143 169.479 40.6162 169.479 40.6181C169.479 40.62 169.479 40.6219 169.479 40.6238C169.479 40.6258 169.479 40.6277 169.479 40.6296C169.479 40.6315 169.479 40.6334 169.479 40.6353C169.479 40.6372 169.479 40.6391 169.479 40.641C169.479 40.6429 169.479 40.6448 169.479 40.6467C169.479 40.6486 169.479 40.6505 169.479 40.6524C169.479 40.6543 169.479 40.6563 169.479 40.6582C169.479 40.6601 169.479 40.662 169.479 40.6639C169.479 40.6658 169.479 40.6677 169.479 40.6696C169.479 40.6715 169.479 40.6734 169.479 40.6753C169.479 40.6772 169.479 40.6791 169.479 40.681C169.479 40.6829 169.479 40.6849 169.479 40.6868C169.479 40.6887 169.479 40.6906 169.479 40.6925C169.479 40.6944 169.479 40.6963 169.479 40.6982C169.479 40.7001 169.479 40.702 169.479 40.7039C169.479 40.7058 169.479 40.7078 169.479 40.7097C169.479 40.7116 169.479 40.7135 169.479 40.7154C169.479 40.7173 169.479 40.7192 169.479 40.7211C169.479 40.723 169.479 40.7249 169.479 40.7268C169.479 40.7287 169.479 40.7307 169.479 40.7326C169.479 40.7345 169.479 40.7364 169.479 40.7383C169.479 40.7402 169.479 40.7421 169.479 40.744C169.479 40.7459 169.479 40.7478 169.479 40.7497C169.479 40.7517 169.479 40.7536 169.479 40.7555C169.479 40.7574 169.479 40.7593 169.479 40.7612C169.479 40.7631 169.479 40.765 169.479 40.7669C169.479 40.7688 169.479 40.7707 169.479 40.7727C169.479 40.7746 169.479 40.7765 169.479 40.7784C169.479 40.7803 169.479 40.7822 169.479 40.7841C169.479 40.786 169.479 40.7879 169.479 40.7899C169.479 40.7918 169.479 40.7937 169.479 40.7956C169.479 40.7975 169.479 40.7994 169.479 40.8013C169.479 40.8032 169.479 40.8051 169.479 40.807C169.479 40.809 169.479 40.8109 169.479 40.8128C169.479 40.8147 169.479 40.8166 169.479 40.8185C169.479 40.8204 169.479 40.8223 169.479 40.8242C169.479 40.8262 169.479 40.8281 169.479 40.83C169.479 40.8319 169.479 40.8338 169.479 40.8357C169.479 40.8376 169.479 40.8395 169.479 40.8415C169.479 40.8434 169.479 40.8453 169.479 40.8472C169.479 40.8491 169.479 40.851 169.479 40.8529C169.479 40.8548 169.479 40.8568 169.479 40.8587C169.479 40.8606 169.479 40.8625 169.479 40.8644C169.479 40.8663 169.479 40.8682 169.479 40.8701C169.479 40.8721 169.479 40.874 169.479 40.8759C169.479 40.8778 169.479 40.8797 169.479 40.8816C169.479 40.8835 169.479 40.8854 169.479 40.8874C169.479 40.8893 169.479 40.8912 169.479 40.8931C169.479 40.895 169.479 40.8969 169.479 40.8988C169.479 40.9008 169.479 40.9027 169.479 40.9046C169.479 40.9065 169.479 40.9084 169.479 40.9103C169.479 40.9122 169.479 40.9141 169.479 40.9161C169.479 40.918 169.479 40.9199 169.479 40.9218C169.479 40.9237 169.479 40.9256 169.479 40.9275C169.479 40.9295 169.479 40.9314 169.479 40.9333C169.479 40.9352 169.479 40.9371 169.479 40.939C169.479 40.9409 169.479 40.9429 169.479 40.9448C169.479 40.9467 169.479 40.9486 169.479 40.9505C169.479 40.9524 169.479 40.9544 169.479 40.9563C169.479 40.9582 169.479 40.9601 169.479 40.962C169.479 40.9639 169.479 40.9658 169.479 40.9678C169.479 40.9697 169.479 40.9716 169.479 40.9735C169.479 40.9754 169.479 40.9773 169.479 40.9793C169.479 40.9812 169.479 40.9831 169.479 40.985C169.479 40.9869 169.479 40.9888 169.479 40.9908C169.479 40.9927 169.479 40.9946 169.479 40.9965C169.479 40.9984 169.479 41.0003 169.479 41.0022C169.479 41.0042 169.479 41.0061 169.479 41.008H171.479ZM171.479 38.128C171.479 37.1187 171.436 35.9858 171.349 34.7312L169.354 34.8688C169.438 36.0889 169.479 37.1747 169.479 38.128H171.479ZM171.351 34.7794C171.263 30.5176 170.252 27.1751 168.13 24.9568L166.685 26.3392C168.318 28.0462 169.269 30.8051 169.352 34.8206L171.351 34.7794ZM168.138 24.9646C165.982 22.6622 162.485 21.64 157.936 21.64V23.64C162.261 23.64 165.078 24.6231 166.677 26.3314L168.138 24.9646ZM157.936 21.64H148.528V23.64H157.936V21.64ZM147.528 22.64V56.56H149.528V22.64H147.528ZM186.765 61.616L186.005 62.2668L186.03 62.296L186.057 62.3231L186.765 61.616ZM186.765 17.648L187.472 18.3551L187.499 18.3279L187.524 18.2988L186.765 17.648ZM192.269 17.648L191.509 18.2988L191.559 18.3572L191.618 18.4073L192.269 17.648ZM192.269 61.616L191.561 60.9089L191.561 60.9089L192.269 61.616ZM187.853 61C187.566 61 187.489 60.9264 187.472 60.9089L186.057 62.3231C186.552 62.8176 187.2 63 187.853 63V61ZM187.524 60.9652C187.437 60.8637 187.381 60.7377 187.381 60.528H185.381C185.381 61.1716 185.58 61.771 186.005 62.2668L187.524 60.9652ZM187.381 60.528V18.672H185.381V60.528H187.381ZM187.381 18.672C187.381 18.4596 187.436 18.3904 187.472 18.3551L186.057 16.9409C185.581 17.4176 185.381 18.0311 185.381 18.672H187.381ZM187.524 18.2988C187.553 18.2649 187.613 18.2 187.853 18.2V16.2C187.153 16.2 186.488 16.4338 186.005 16.9972L187.524 18.2988ZM187.853 18.2H191.245V16.2H187.853V18.2ZM191.245 18.2C191.407 18.2 191.461 18.2422 191.509 18.2988L193.028 16.9972C192.564 16.4565 191.935 16.2 191.245 16.2V18.2ZM191.618 18.4073C191.674 18.4558 191.717 18.5093 191.717 18.672H193.717C193.717 17.9814 193.46 17.3522 192.919 16.8887L191.618 18.4073ZM191.717 18.672V60.528H193.717V18.672H191.717ZM191.717 60.528C191.717 60.6925 191.67 60.7999 191.561 60.9089L192.976 62.3231C193.464 61.8348 193.717 61.2169 193.717 60.528H191.717ZM191.561 60.9089C191.526 60.9442 191.457 61 191.245 61V63C191.885 63 192.499 62.7998 192.976 62.3231L191.561 60.9089ZM191.245 61H187.853V63H191.245V61ZM204.265 61.616L203.505 62.2668L203.53 62.296L203.557 62.3231L204.265 61.616ZM204.265 17.648L204.972 18.3551L204.999 18.3279L205.024 18.2988L204.265 17.648ZM232.873 17.648L232.113 18.2988L232.138 18.3279L232.165 18.3551L232.873 17.648ZM232.873 22.256L232.165 21.5489L232.165 21.5489L232.873 22.256ZM210.025 22.64V21.64H209.025V22.64H210.025ZM210.025 36.656H209.025V37.656H210.025V36.656ZM231.465 37.104L230.705 37.7548L230.73 37.7839L230.757 37.8111L231.465 37.104ZM231.465 41.648L232.172 42.3551L232.199 42.3279L232.224 42.2988L231.465 41.648ZM210.025 42.032V41.032H209.025V42.032H210.025ZM210.025 56.56H209.025V57.56H210.025V56.56ZM233.385 61.616L234.092 62.3231L234.119 62.2959L234.144 62.2668L233.385 61.616ZM205.353 61C205.066 61 204.989 60.9264 204.972 60.9089L203.557 62.3231C204.052 62.8176 204.7 63 205.353 63V61ZM205.024 60.9652C204.937 60.8637 204.881 60.7377 204.881 60.528H202.881C202.881 61.1716 203.08 61.771 203.505 62.2668L205.024 60.9652ZM204.881 60.528V18.736H202.881V60.528H204.881ZM204.881 18.736C204.881 18.4499 204.954 18.3726 204.972 18.3551L203.557 16.9409C203.063 17.4354 202.881 18.0835 202.881 18.736H204.881ZM205.024 18.2988C205.053 18.2649 205.113 18.2 205.353 18.2V16.2C204.653 16.2 203.988 16.4338 203.505 16.9972L205.024 18.2988ZM205.353 18.2H231.785V16.2H205.353V18.2ZM231.785 18.2C232.024 18.2 232.084 18.2649 232.113 18.2988L233.632 16.9972C233.149 16.4338 232.484 16.2 231.785 16.2V18.2ZM232.165 18.3551C232.183 18.3726 232.257 18.4499 232.257 18.736H234.257C234.257 18.0835 234.074 17.4354 233.58 16.9409L232.165 18.3551ZM232.257 18.736V21.168H234.257V18.736H232.257ZM232.257 21.168C232.257 21.4541 232.183 21.5314 232.165 21.5489L233.58 22.9631C234.074 22.4686 234.257 21.8205 234.257 21.168H232.257ZM232.165 21.5489C232.148 21.5664 232.071 21.64 231.785 21.64V23.64C232.437 23.64 233.085 23.4576 233.58 22.9631L232.165 21.5489ZM231.785 21.64H210.025V23.64H231.785V21.64ZM209.025 22.64V36.656H211.025V22.64H209.025ZM210.025 37.656H230.377V35.656H210.025V37.656ZM230.377 37.656C230.616 37.656 230.676 37.7209 230.705 37.7548L232.224 36.4532C231.741 35.8898 231.076 35.656 230.377 35.656V37.656ZM230.757 37.8111C230.775 37.8286 230.849 37.9059 230.849 38.192H232.849C232.849 37.5395 232.666 36.8914 232.172 36.3969L230.757 37.8111ZM230.849 38.192V40.56H232.849V38.192H230.849ZM230.849 40.56C230.849 40.7697 230.792 40.8957 230.705 40.9972L232.224 42.2988C232.649 41.803 232.849 41.2036 232.849 40.56H230.849ZM230.757 40.9409C230.74 40.9584 230.663 41.032 230.377 41.032V43.032C231.029 43.032 231.677 42.8496 232.172 42.3551L230.757 40.9409ZM230.377 41.032H210.025V43.032H230.377V41.032ZM209.025 42.032V56.56H211.025V42.032H209.025ZM210.025 57.56H232.297V55.56H210.025V57.56ZM232.297 57.56C232.583 57.56 232.66 57.6336 232.677 57.6511L234.092 56.2369C233.597 55.7424 232.949 55.56 232.297 55.56V57.56ZM232.677 57.6511C232.695 57.6686 232.769 57.7459 232.769 58.032H234.769C234.769 57.3795 234.586 56.7314 234.092 56.2369L232.677 57.6511ZM232.769 58.032V60.528H234.769V58.032H232.769ZM232.769 60.528C232.769 60.7377 232.712 60.8637 232.625 60.9652L234.144 62.2668C234.569 61.771 234.769 61.1716 234.769 60.528H232.769ZM232.677 60.9089C232.66 60.9264 232.583 61 232.297 61V63C232.949 63 233.597 62.8176 234.092 62.3231L232.677 60.9089ZM232.297 61H205.353V63H232.297V61Z" fill="white"/>
</svg>
