<?xml version="1.0" standalone="no"?>
<!DOCTYPE svg PUBLIC "-//W3C//DTD SVG 20010904//EN"
 "http://www.w3.org/TR/2001/REC-SVG-20010904/DTD/svg10.dtd">
<svg version="1.0" xmlns="http://www.w3.org/2000/svg"
 width="512.000000pt" height="512.000000pt" viewBox="0 0 512.000000 512.000000"
 preserveAspectRatio="xMidYMid meet">

<g transform="translate(0.000000,512.000000) scale(0.100000,-0.100000)"
fill="#000000" stroke="none">
<path d="M1470 5101 c-136 -43 -220 -123 -269 -254 l-21 -58 0 -2229 0 -2229
21 -58 c43 -116 124 -199 236 -245 l58 -23 1035 -3 c767 -2 1049 0 1090 9 125
26 220 101 277 217 l38 76 3 2240 2 2241 -21 60 c-49 135 -146 225 -284 261
-40 11 -253 14 -1080 13 -957 0 -1034 -1 -1085 -18z m2186 -148 c50 -26 108
-90 130 -140 10 -25 18 -81 21 -160 l6 -123 -1253 0 -1253 0 6 123 c6 137 18
176 74 238 36 40 75 65 123 80 14 4 493 7 1065 6 l1040 -2 41 -22z m154 -2253
l0 -1690 -1250 0 -1250 0 0 1690 0 1690 1250 0 1250 0 0 -1690z m-3 -2087 c-3
-181 -8 -270 -17 -296 -18 -50 -82 -122 -134 -150 l-41 -22 -1055 0 -1055 0
-41 22 c-22 12 -57 40 -77 62 -68 75 -70 87 -75 379 l-4 262 1252 0 1252 0 -5
-257z"/>
<path d="M2097 4812 c-24 -26 -21 -75 4 -98 20 -18 42 -19 459 -19 417 0 439
1 459 19 26 24 28 77 3 99 -17 15 -64 17 -464 17 -418 0 -446 -1 -461 -18z"/>
<path d="M2480 725 c-144 -45 -214 -219 -142 -356 95 -182 349 -182 444 0 73
139 2 312 -146 356 -60 18 -97 18 -156 0z m157 -157 c48 -48 47 -122 -3 -169
-36 -34 -112 -34 -148 0 -61 57 -45 160 29 192 33 15 96 3 122 -23z"/>
</g>
</svg>
