<svg width="50" height="64" viewBox="0 0 50 64" fill="none" xmlns="http://www.w3.org/2000/svg">
<line y1="2.5" x2="50" y2="2.5" stroke="black" stroke-width="5"/>
<line y1="61.5" x2="50" y2="61.5" stroke="black" stroke-width="5"/>
<path d="M13.528 56C13.1013 56 12.7387 55.8507 12.44 55.552C12.1413 55.2533 11.992 54.8907 11.992 54.464V12.8C11.992 12.3307 12.1413 11.9467 12.44 11.648C12.7387 11.3493 13.1013 11.2 13.528 11.2H41.304C41.7733 11.2 42.1573 11.3493 42.456 11.648C42.7547 11.9467 42.904 12.3307 42.904 12.8V17.28C42.904 17.7493 42.7547 18.1333 42.456 18.432C42.1573 18.688 41.7733 18.816 41.304 18.816H20.76V30.976H40.024C40.4933 30.976 40.8773 31.1253 41.176 31.424C41.4747 31.7227 41.624 32.1067 41.624 32.576V37.056C41.624 37.4827 41.4747 37.8453 41.176 38.144C40.8773 38.4427 40.4933 38.592 40.024 38.592H20.76V54.464C20.76 54.8907 20.6107 55.2533 20.312 55.552C20.0133 55.8507 19.6293 56 19.16 56H13.528Z" fill="black"/>
<path d="M12.44 55.552L11.7329 56.2591L11.7329 56.2591L12.44 55.552ZM12.44 11.648L13.1471 12.3551L13.1471 12.3551L12.44 11.648ZM42.456 11.648L41.7489 12.3551L41.7489 12.3551L42.456 11.648ZM42.456 18.432L43.1068 19.1913L43.136 19.1663L43.1631 19.1391L42.456 18.432ZM20.76 18.816V17.816H19.76V18.816H20.76ZM20.76 30.976H19.76V31.976H20.76V30.976ZM41.176 31.424L41.8831 30.7169L41.8831 30.7169L41.176 31.424ZM41.176 38.144L41.8831 38.8511L41.8831 38.8511L41.176 38.144ZM20.76 38.592V37.592H19.76V38.592H20.76ZM13.528 55C13.3635 55 13.2561 54.9539 13.1471 54.8449L11.7329 56.2591C12.2212 56.7474 12.8391 57 13.528 57V55ZM13.1471 54.8449C13.0381 54.7359 12.992 54.6285 12.992 54.464H10.992C10.992 55.1529 11.2446 55.7708 11.7329 56.2591L13.1471 54.8449ZM12.992 54.464V12.8H10.992V54.464H12.992ZM12.992 12.8C12.992 12.5636 13.0576 12.4446 13.1471 12.3551L11.7329 10.9409C11.225 11.4488 10.992 12.0977 10.992 12.8H12.992ZM13.1471 12.3551C13.2561 12.2461 13.3635 12.2 13.528 12.2V10.2C12.8391 10.2 12.2212 10.4526 11.7329 10.9409L13.1471 12.3551ZM13.528 12.2H41.304V10.2H13.528V12.2ZM41.304 12.2C41.5404 12.2 41.6594 12.2656 41.7489 12.3551L43.1631 10.9409C42.6552 10.433 42.0063 10.2 41.304 10.2V12.2ZM41.7489 12.3551C41.8384 12.4446 41.904 12.5636 41.904 12.8H43.904C43.904 12.0977 43.671 11.4488 43.1631 10.9409L41.7489 12.3551ZM41.904 12.8V17.28H43.904V12.8H41.904ZM41.904 17.28C41.904 17.5164 41.8384 17.6354 41.7489 17.7249L43.1631 19.1391C43.671 18.6312 43.904 17.9823 43.904 17.28H41.904ZM41.8052 17.6727C41.7214 17.7446 41.5829 17.816 41.304 17.816V19.816C41.9637 19.816 42.5933 19.6314 43.1068 19.1913L41.8052 17.6727ZM41.304 17.816H20.76V19.816H41.304V17.816ZM19.76 18.816V30.976H21.76V18.816H19.76ZM20.76 31.976H40.024V29.976H20.76V31.976ZM40.024 31.976C40.2604 31.976 40.3794 32.0416 40.4689 32.1311L41.8831 30.7169C41.3752 30.209 40.7263 29.976 40.024 29.976V31.976ZM40.4689 32.1311C40.5584 32.2206 40.624 32.3396 40.624 32.576H42.624C42.624 31.8737 42.391 31.2248 41.8831 30.7169L40.4689 32.1311ZM40.624 32.576V37.056H42.624V32.576H40.624ZM40.624 37.056C40.624 37.2205 40.5779 37.3279 40.4689 37.4369L41.8831 38.8511C42.3714 38.3628 42.624 37.7449 42.624 37.056H40.624ZM40.4689 37.4369C40.3794 37.5264 40.2604 37.592 40.024 37.592V39.592C40.7263 39.592 41.3752 39.359 41.8831 38.8511L40.4689 37.4369ZM40.024 37.592H20.76V39.592H40.024V37.592ZM19.76 38.592V54.464H21.76V38.592H19.76ZM19.76 54.464C19.76 54.6285 19.7139 54.7359 19.6049 54.8449L21.0191 56.2591C21.5074 55.7708 21.76 55.1529 21.76 54.464H19.76ZM19.6049 54.8449C19.5154 54.9344 19.3964 55 19.16 55V57C19.8623 57 20.5112 56.767 21.0191 56.2591L19.6049 54.8449ZM19.16 55H13.528V57H19.16V55Z" fill="white"/>
</svg>
